<?xml version="1.0" encoding="UTF-8"?>
<svg width="128pt" height="128pt" version="1.1" viewBox="0 0 128 128" xmlns="http://www.w3.org/2000/svg">
 <path d="m64 0c-22.727 0-41.227 18.5-41.227 41.227 0 12.051 3.8516 17.625 7.9258 23.523 4.2266 6.1016 8.8984 12.824 10.727 28.5 0 0.125 0.023438 0.25 0.050781 0.375 0.5 4.3242 0.77344 9.3008 0.77344 15.148 0 3.9258 3.1992 7.125 7.125 7.125h0.074219v6.9258c0 2.875 2.3242 5.1992 5.1992 5.1992h18.648c2.875 0 5.1992-2.3242 5.1992-5.1992v-6.9258h0.074218c3.9258 0 7.125-3.1992 7.125-7.125 0-5.875 0.27344-10.898 0.77344-15.25 0-0.050782 0.023438-0.125 0.023438-0.17578 1.8242-15.75 6.5-22.5 10.75-28.602 4.0742-5.8984 7.9258-11.449 7.9258-23.523 0.058593-22.723-18.441-41.223-41.168-41.223zm14.602 112.25h-10.852c-1 0-1.8242 0.80078-1.8242 1.8242 0 1.0234 0.80078 1.8242 1.8242 1.8242h7.1758v6.9258c0 0.875-0.69922 1.5742-1.5742 1.5742h-18.648c-0.875 0-1.5742-0.69922-1.5742-1.5742v-6.9258h7.1211c1 0 1.8242-0.80078 1.8242-1.8242 0-1.0234-0.82422-1.8242-1.8242-1.8242h-10.875c-1.9258 0-3.5-1.5742-3.5-3.5 0-5.1484-0.22656-9.6992-0.625-13.727h15c1 0 1.8242-0.80078 1.8242-1.8242 0-1.0234-0.80078-1.8242-1.8242-1.8242h-9.375v-14.125c0-1-0.80078-1.8242-1.8242-1.8242-1.0234 0-1.8242 0.80078-1.8242 1.8242v14.125h-2.375c-1.5234-11.449-4.5742-18.301-7.6992-23.5 2.4258-5.875 8.1758-9.7734 14.574-9.7734h6.6484l1.125 5.875-1.6484 7.1758c-0.22656 0.97656 0.375 1.9492 1.375 2.1758 0.125 0.023437 0.27344 0.050781 0.39844 0.050781 0.82422 0 1.5742-0.57422 1.7734-1.3984l1.375-5.9766h2.4766l3.8008 16.551-5.0508 5.4453-5.0234-5.4492 0.69922-3.0742c0.22656-0.97656-0.375-1.9492-1.3516-2.1758-0.97656-0.22656-1.9492 0.375-2.1758 1.3516l-0.92578 4.0234c-0.125 0.57422 0.023438 1.1992 0.42578 1.625l7.0234 7.6016c0.35156 0.375 0.82422 0.57422 1.3242 0.57422s1-0.22656 1.3242-0.57422l7-7.6016c0.39844-0.44922 0.57422-1.0508 0.42578-1.625l-4.2461-18.699 1.125-5.875h6.6484c6.3984 0 12.148 3.8984 14.574 9.7734-3.1484 5.1992-6.1758 12.074-7.6992 23.5h-2.3984v-14.125c0-1-0.80078-1.8242-1.8242-1.8242-1.0234 0-1.8242 0.80078-1.8242 1.8242v14.125h-9.3516c-1 0-1.8242 0.80078-1.8242 1.8242 0 1.0234 0.80078 1.8242 1.8242 1.8242h14.977c-0.39844 4.0234-0.625 8.5742-0.625 13.727 0 1.9258-1.5508 3.5-3.5 3.5zm-13.477-49.898h-2.25l-0.80078-4.2266h3.875zm29.176 0.32422c-0.375 0.55078-0.77344 1.1016-1.1484 1.6758-3.3984-6-9.8242-9.8516-16.875-9.8516h-24.523c-7.0508 0-13.477 3.8516-16.875 9.8516-0.39844-0.57422-0.77344-1.125-1.1484-1.6758-4.0742-5.875-7.3008-10.523-7.3008-21.449-0.003907-20.727 16.844-37.602 37.57-37.602s37.574 16.852 37.574 37.602c0 10.922-3.1992 15.574-7.2734 21.449zm1.125-24.301c1-0.023438 1.8242 0.77344 1.8516 1.7734v0.074218c0 0.32422 0.023437 0.67578 0.023437 1 0 1-0.80078 1.8242-1.8242 1.8242-1.0234 0-1.8242-0.80078-1.8242-1.8242 0-0.30078 0-0.625-0.023438-0.92578v-0.074219c-0.003906-0.99609 0.79688-1.8242 1.7969-1.8477zm0.55078-6.4258c0.27344 0.94922-0.27344 1.9766-1.25 2.25-0.17578 0.050781-0.35156 0.074219-0.5 0.074219-0.77344 0-1.5-0.52344-1.75-1.3008-2.3242-8.0234-7.9766-14.75-15.523-18.398-0.89844-0.44922-1.2734-1.5234-0.82422-2.4258 0.44922-0.89844 1.5234-1.2734 2.4258-0.82422 8.4688 4.0742 14.82 11.602 17.422 20.625zm-19.027-8.9258c2.625 3.1016 4.0742 7.0742 4.0742 11.125 0 9.5234-7.75 17.301-17.301 17.301-9.5508 0-17.301-7.75-17.301-17.301 0-9.5234 7.75-17.301 17.301-17.301 2.2266 0 4.375 0.42578 6.4258 1.2266 0.92578 0.375 1.375 1.4258 1 2.3516s-1.4258 1.375-2.3516 1c-1.6016-0.64844-3.3242-0.97656-5.0742-0.97656-7.5234 0-13.676 6.125-13.676 13.676s6.125 13.676 13.676 13.676c7.5508 0 13.676-6.125 13.676-13.676 0-3.2266-1.1484-6.3516-3.2266-8.8008-0.64844-0.77344-0.55078-1.8984 0.22656-2.5508 0.77734-0.59766 1.9023-0.5 2.5508 0.25zm33.074-1.4219c-0.67578-0.75-0.60156-1.8984 0.125-2.5508l8.625-7.75c0.75-0.67578 1.8984-0.60156 2.5508 0.125 0.67578 0.75 0.60156 1.8984-0.125 2.5508l-8.625 7.75c-0.35156 0.30078-0.77344 0.47656-1.1992 0.47656-0.5-0.003906-1-0.20312-1.3516-0.60156zm11.328 33.5c-0.35156 0.39844-0.85156 0.60156-1.3516 0.60156-0.42578 0-0.875-0.14844-1.1992-0.47656l-8.625-7.75c-0.75-0.67578-0.80078-1.8242-0.14844-2.5508 0.67578-0.75 1.8242-0.80078 2.5508-0.14844l8.625 7.75c0.74609 0.67188 0.82031 1.8242 0.14844 2.5742zm3.5742-21.828c0 1-0.80078 1.8242-1.8242 1.8242h-11.199c-1 0-1.8242-0.80078-1.8242-1.8242 0-1.0234 0.80078-1.8242 1.8242-1.8242h11.199c1.0234 0 1.8242 0.80078 1.8242 1.8242zm-106.95-11.672c-0.35156 0.39844-0.85156 0.60156-1.3516 0.60156-0.42578 0-0.875-0.14844-1.1992-0.47656l-8.625-7.75c-0.75-0.67578-0.80078-1.8242-0.125-2.5508 0.67578-0.75 1.8242-0.80078 2.5508-0.125l8.625 7.75c0.72266 0.64844 0.79688 1.8008 0.125 2.5508zm0 23.324c0.67578 0.75 0.60156 1.8984-0.14844 2.5508l-8.625 7.75c-0.35156 0.30078-0.77344 0.47656-1.1992 0.47656-0.5 0-1-0.19922-1.3516-0.60156-0.67578-0.75-0.60156-1.8984 0.14844-2.5508l8.625-7.75c0.72266-0.67578 1.875-0.625 2.5508 0.125zm-1.9023-9.8516h-11.176c-1 0-1.8242-0.80078-1.8242-1.8242s0.80078-1.8242 1.8242-1.8242h11.199c1 0 1.8242 0.80078 1.8242 1.8242 0.003906 1.0234-0.84766 1.8242-1.8477 1.8242z"/>
</svg>
