<svg id="Ebene_1" data-name="Ebene 1" xmlns="http://www.w3.org/2000/svg" viewBox="0 0 566.93 566.93"><defs><style>.cls-1{fill:#eb5c37;}</style></defs><title>114 logo_Step4</title><polygon class="cls-1" points="273.83 211.03 254.57 230.29 273.83 249.56 312.36 211.03 273.83 172.51 254.57 191.77 273.83 211.03"/><path class="cls-1" d="M150,317.26v-9.82h17.12v10a18.36,18.36,0,0,1,5-7.4,11.55,11.55,0,0,1,8.06-3.64,48.5,48.5,0,0,1,7.09.5l-.91,13-8.21-1.52q-7,.51-10.23,6.08V343.9h10.23v9.73H150v-8.82l6.69-1.82V317.26Z"/><path class="cls-1" d="M214.44,344.71a26.88,26.88,0,0,0,13.88-3.95l3.64,8.92a32.65,32.65,0,0,1-17.62,5.06q-11.55,0-17.07-6.53t-5.52-17.68q0-10.42,5.52-17.27T213,306.43q9.82,0,14.64,5.82a21.44,21.44,0,0,1,4.81,14.13,31.57,31.57,0,0,1-.81,7.9H203.71a11.2,11.2,0,0,0,2.88,7.7Q209.27,344.71,214.44,344.71Zm-10.63-18.94h17.62a8.37,8.37,0,0,0,.1-1.42,8.1,8.1,0,0,0-2.43-6.28,8.68,8.68,0,0,0-6.08-2.22Q204.52,315.85,203.81,325.77Z"/><path class="cls-1" d="M252.37,316.45a5.92,5.92,0,0,1-4.3,1.62,6.11,6.11,0,0,1-4.36-1.62A5.43,5.43,0,0,1,242,312.3a5.59,5.59,0,0,1,1.72-4.2,6,6,0,0,1,4.36-1.67,5.79,5.79,0,0,1,4.3,1.67,5.66,5.66,0,0,1,1.67,4.2A5.5,5.5,0,0,1,252.37,316.45Zm-4.3,37.88a6,6,0,0,1-4.36-1.67,5.59,5.59,0,0,1-1.72-4.2,5.43,5.43,0,0,1,1.72-4.15,6.11,6.11,0,0,1,4.36-1.62,5.92,5.92,0,0,1,4.3,1.62,5.5,5.5,0,0,1,1.67,4.15,5.59,5.59,0,0,1-1.72,4.2A5.85,5.85,0,0,1,248.07,354.33Z"/><path class="cls-1" d="M285.85,347.85a25.7,25.7,0,0,0,14.78-5l2.64,6.28a30.39,30.39,0,0,1-17.53,5.57q-10.94,0-16-6.48t-5.06-17.83q0-10.64,5.16-17.32t15.09-6.68q9.12,0,13.78,5.67a21,21,0,0,1,4.66,13.77,46.32,46.32,0,0,1-.61,7.09h-30Q273.08,347.86,285.85,347.85Zm-13-21h22.79a13.35,13.35,0,0,0,.2-2,12.18,12.18,0,0,0-2.93-8.56,10.38,10.38,0,0,0-8-3.19Q273.8,313.11,272.88,326.89Z"/><path class="cls-1" d="M345.5,312V290H336v-6.89H353.1v63.71h7v6.79H353.5q-6.78,0-7.09-6.39-5.78,7.5-14.58,7.5-9.72,0-14.54-6.33t-4.81-18q0-11.34,4.91-17.67t14.74-6.33Q341,306.43,345.5,312Zm-25,18.43q0,17,13.17,17a14.34,14.34,0,0,0,11.85-6.08V319.29q-3.94-5.57-11.75-5.57Q320.47,313.72,320.48,330.43Z"/><path class="cls-1" d="M409.82,307.44v39.3h7.08v6.89H403.43v-7.4a21.71,21.71,0,0,1-7,6,20.33,20.33,0,0,1-10.08,2.53q-7.9,0-11.3-4.36t-3.39-13.47V314.23h-7.49v-6.79h15.09v28.87q0,5.67,1.87,8.35c1.25,1.79,3.76,2.69,7.55,2.69a16.59,16.59,0,0,0,8.05-2.08,13.85,13.85,0,0,0,5.52-5v-26H392.8v-6.79Z"/><path class="cls-1" d="M150,378.83v-1.74h3.56v2.51a5,5,0,0,1,1.35-1.92,3,3,0,0,1,2-.85,10.83,10.83,0,0,1,1.9.16l-.24,2.36-1.92-.49a3.38,3.38,0,0,0-1.71.69,4.2,4.2,0,0,0-1.29,1.57v5.95h2.79v1.72H150v-1.54l1.74-.36v-8.06Z"/><path class="cls-1" d="M165.63,387.33a6.49,6.49,0,0,0,3.75-1.26l.67,1.6a7.7,7.7,0,0,1-4.44,1.41,4.83,4.83,0,0,1-4.06-1.65,7.18,7.18,0,0,1-1.28-4.51,6.93,6.93,0,0,1,1.31-4.39,4.54,4.54,0,0,1,3.82-1.7,4.24,4.24,0,0,1,3.49,1.44,5.31,5.31,0,0,1,1.19,3.49,12,12,0,0,1-.16,1.8h-7.6C162.37,386.07,163.48,387.33,165.63,387.33ZM162.35,382h5.77a2.85,2.85,0,0,0,.06-.52,3.08,3.08,0,0,0-.75-2.17,2.65,2.65,0,0,0-2-.8Q162.58,378.53,162.35,382Z"/><path class="cls-1" d="M177.73,387.33a6.49,6.49,0,0,0,3.74-1.26l.67,1.6a7.7,7.7,0,0,1-4.44,1.41,4.83,4.83,0,0,1-4.06-1.65,7.18,7.18,0,0,1-1.28-4.51,7,7,0,0,1,1.31-4.39,4.54,4.54,0,0,1,3.82-1.7,4.27,4.27,0,0,1,3.5,1.44,5.36,5.36,0,0,1,1.18,3.49,10.8,10.8,0,0,1-.16,1.8h-7.6C174.47,386.07,175.57,387.33,177.73,387.33ZM174.44,382h5.78a3.89,3.89,0,0,0,.05-.52,3.08,3.08,0,0,0-.75-2.17,2.64,2.64,0,0,0-2-.8Q174.67,378.53,174.44,382Z"/><path class="cls-1" d="M184.35,388.79v-1.72H186v-8.24h-1.67v-1.74h3.44v1.31a5.34,5.34,0,0,1,4.11-1.57,3.73,3.73,0,0,1,3,1.09,5.36,5.36,0,0,1,.89,3.4v5.75h1.67v1.72h-5.57v-1.72h2v-5.59a3.62,3.62,0,0,0-.5-2.12,2.42,2.42,0,0,0-2-.68,5.35,5.35,0,0,0-1.92.36,4.53,4.53,0,0,0-1.49.85v7.18h1.95v1.72Z"/><path class="cls-1" d="M210.38,377.83l-2.47.82a3.75,3.75,0,0,1,.93,2.7,3.85,3.85,0,0,1-1.27,3.07,5.26,5.26,0,0,1-3.51,1.09,5.76,5.76,0,0,1-2-.26l-.36,2.08h3.85a4.59,4.59,0,0,1,2.93.81,2.83,2.83,0,0,1,1,2.32,3.55,3.55,0,0,1-1.56,3,6.94,6.94,0,0,1-4.17,1.13c-3.37,0-5.06-1.07-5.06-3.19a2.47,2.47,0,0,1,.63-1.67,3.08,3.08,0,0,1,1.4-.95,1.4,1.4,0,0,1-.84-1.41,3.22,3.22,0,0,1,1.28-2.38,3.84,3.84,0,0,1-2.05-3.7,4.26,4.26,0,0,1,1.27-3.26,5.1,5.1,0,0,1,3.68-1.21,4.93,4.93,0,0,1,3,.8A3.77,3.77,0,0,1,210.2,376Zm-8.47,11.27A2.26,2.26,0,0,0,200.7,391c0,1.33,1,2,3.13,2a5.16,5.16,0,0,0,2.62-.58,1.84,1.84,0,0,0,1-1.71c0-1.06-.73-1.59-2.18-1.59ZM204,384c1.92,0,2.87-.89,2.87-2.67a2.81,2.81,0,0,0-.69-2,2.87,2.87,0,0,0-2.18-.74c-2,0-2.95.9-2.95,2.72S202.07,384,204,384Z"/><path class="cls-1" d="M211.41,388.79v-1.72H214v-8.24h-2.56v-1.74h4.49v10h2.44v1.72Zm3.39-14.6c-1,0-1.42-.46-1.42-1.36a1.24,1.24,0,0,1,1.42-1.39,1.43,1.43,0,0,1,1,.35,1.28,1.28,0,0,1,.4,1,1.24,1.24,0,0,1-.4,1A1.43,1.43,0,0,1,214.8,374.19Z"/><path class="cls-1" d="M219.77,388.79v-1.72h1.7v-8.24H219.8v-1.74h3.44v1.31a5.33,5.33,0,0,1,4.11-1.57,3.71,3.71,0,0,1,3,1.09,5.3,5.3,0,0,1,.9,3.4v5.75h1.67v1.72h-5.57v-1.72h2v-5.59a3.54,3.54,0,0,0-.5-2.12,2.39,2.39,0,0,0-2-.68,5.45,5.45,0,0,0-1.93.36,4.64,4.64,0,0,0-1.49.85v7.18h2v1.72Z"/><path class="cls-1" d="M240,387.33a6.52,6.52,0,0,0,3.75-1.26l.67,1.6a7.7,7.7,0,0,1-4.44,1.41,4.83,4.83,0,0,1-4.06-1.65,7.11,7.11,0,0,1-1.28-4.51,6.93,6.93,0,0,1,1.31-4.39,4.53,4.53,0,0,1,3.82-1.7,4.24,4.24,0,0,1,3.49,1.44,5.3,5.3,0,0,1,1.18,3.49,11.9,11.9,0,0,1-.15,1.8h-7.6Q236.72,387.33,240,387.33ZM236.67,382h5.77a2.72,2.72,0,0,0,.05-.52,3.12,3.12,0,0,0-.74-2.17,2.65,2.65,0,0,0-2-.8Q236.9,378.53,236.67,382Z"/><path class="cls-1" d="M252,387.33a6.49,6.49,0,0,0,3.75-1.26l.67,1.6a7.7,7.7,0,0,1-4.44,1.41,4.83,4.83,0,0,1-4.06-1.65,7.18,7.18,0,0,1-1.28-4.51,6.93,6.93,0,0,1,1.31-4.39,4.54,4.54,0,0,1,3.82-1.7,4.24,4.24,0,0,1,3.49,1.44,5.3,5.3,0,0,1,1.18,3.49,11.9,11.9,0,0,1-.15,1.8h-7.6C248.78,386.07,249.89,387.33,252,387.33ZM248.76,382h5.77a2.72,2.72,0,0,0,.05-.52,3.07,3.07,0,0,0-.74-2.17,2.65,2.65,0,0,0-2-.8Q249,378.53,248.76,382Z"/><path class="cls-1" d="M258.67,378.83v-1.74h3.57v2.51a4.9,4.9,0,0,1,1.34-1.92,3,3,0,0,1,2-.85,10.83,10.83,0,0,1,1.9.16l-.23,2.36-1.93-.49a3.38,3.38,0,0,0-1.71.69,4.29,4.29,0,0,0-1.29,1.57v5.95h2.8v1.72h-6.47v-1.54l1.74-.36v-8.06Z"/><path class="cls-1" d="M268.76,388.79v-1.72h2.56v-8.24h-2.56v-1.74h4.49v10h2.44v1.72Zm3.38-14.6a1.38,1.38,0,1,1,0-2.75,1.44,1.44,0,0,1,1,.35,1.28,1.28,0,0,1,.4,1,1.24,1.24,0,0,1-.4,1A1.44,1.44,0,0,1,272.14,374.19Z"/><path class="cls-1" d="M277.12,388.79v-1.72h1.7v-8.24h-1.67v-1.74h3.44v1.31a5.33,5.33,0,0,1,4.11-1.57,3.71,3.71,0,0,1,3,1.09,5.3,5.3,0,0,1,.9,3.4v5.75h1.67v1.72H284.7v-1.72h2v-5.59a3.54,3.54,0,0,0-.5-2.12,2.39,2.39,0,0,0-2-.68,5.45,5.45,0,0,0-1.93.36,4.64,4.64,0,0,0-1.49.85v7.18h1.95v1.72Z"/><path class="cls-1" d="M303.16,377.83l-2.47.82a3.75,3.75,0,0,1,.93,2.7,3.83,3.83,0,0,1-1.28,3.07,5.22,5.22,0,0,1-3.5,1.09,5.87,5.87,0,0,1-2-.26l-.36,2.08h3.85a4.57,4.57,0,0,1,2.93.81,2.8,2.8,0,0,1,1,2.32,3.57,3.57,0,0,1-1.55,3,7,7,0,0,1-4.17,1.13c-3.37,0-5.06-1.07-5.06-3.19a2.47,2.47,0,0,1,.63-1.67,3.08,3.08,0,0,1,1.4-.95,1.4,1.4,0,0,1-.85-1.41A3.23,3.23,0,0,1,294,385a3.84,3.84,0,0,1-2.06-3.7,4.26,4.26,0,0,1,1.27-3.26,5.14,5.14,0,0,1,3.69-1.21,4.92,4.92,0,0,1,3,.8A3.79,3.79,0,0,1,303,376Zm-8.48,11.27a2.27,2.27,0,0,0-1.2,1.88c0,1.33,1,2,3.13,2a5.16,5.16,0,0,0,2.62-.58,1.84,1.84,0,0,0,1-1.71c0-1.06-.73-1.59-2.18-1.59Zm2.13-5.13q2.88,0,2.88-2.67a2.81,2.81,0,0,0-.69-2,2.9,2.9,0,0,0-2.19-.74c-2,0-2.95.9-2.95,2.72S294.85,384,296.81,384Z"/><path class="cls-1" d="M314.94,387.33a6.54,6.54,0,0,0,3.75-1.26l.66,1.6a7.7,7.7,0,0,1-4.44,1.41,4.8,4.8,0,0,1-4.05-1.65,7.12,7.12,0,0,1-1.29-4.51,7,7,0,0,1,1.31-4.39,4.56,4.56,0,0,1,3.83-1.7,4.25,4.25,0,0,1,3.49,1.44,5.3,5.3,0,0,1,1.18,3.49,11.9,11.9,0,0,1-.15,1.8h-7.6Q311.71,387.33,314.94,387.33ZM311.65,382h5.78a3.89,3.89,0,0,0,.05-.52,3.12,3.12,0,0,0-.74-2.17,2.67,2.67,0,0,0-2-.8Q311.89,378.53,311.65,382Z"/><path class="cls-1" d="M330.06,378.24v-5.57h-2.41v-1.74H332v16.14h1.78v1.72h-1.67c-1.15,0-1.75-.53-1.8-1.61a4.51,4.51,0,0,1-3.7,1.9,4.33,4.33,0,0,1-3.68-1.61,7.42,7.42,0,0,1-1.22-4.55,7.15,7.15,0,0,1,1.25-4.48,4.43,4.43,0,0,1,3.73-1.61A4.08,4.08,0,0,1,330.06,378.24Zm-6.34,4.68q0,4.31,3.34,4.31a3.65,3.65,0,0,0,3-1.54v-5.6a3.42,3.42,0,0,0-3-1.41Q323.72,378.68,323.72,382.92Z"/><path class="cls-1" d="M346.36,377.09v10h1.8v1.74h-3.42v-1.87a5.36,5.36,0,0,1-1.78,1.51,5.09,5.09,0,0,1-2.55.65,3.42,3.42,0,0,1-2.87-1.11,5.53,5.53,0,0,1-.86-3.41v-5.75h-1.9v-1.72h3.83v7.31a3.8,3.8,0,0,0,.47,2.12,2.21,2.21,0,0,0,1.92.68,4.24,4.24,0,0,0,2-.52,3.63,3.63,0,0,0,1.4-1.27v-6.6h-2.39v-1.72Z"/><path class="cls-1" d="M355.29,387.25a7.06,7.06,0,0,0,3.78-1.07l.56,1.66a8.84,8.84,0,0,1-4.54,1.24,4.65,4.65,0,0,1-3.95-1.71,7.07,7.07,0,0,1-1.31-4.45,6.76,6.76,0,0,1,1.37-4.37,4.79,4.79,0,0,1,4-1.72,9.58,9.58,0,0,1,4.26,1l-.43,4h-1.57v-2.88a6.17,6.17,0,0,0-2.23-.36,2.79,2.79,0,0,0-2.47,1.16,5.33,5.33,0,0,0-.79,3.08Q352,387.25,355.29,387.25Z"/><path class="cls-1" d="M364.2,379.07v2h-1.64a4.55,4.55,0,0,1-.34-1.72,2.12,2.12,0,0,1,1.12-1.85,6.32,6.32,0,0,1,3.27-.69,9.11,9.11,0,0,1,2.32.24,2.35,2.35,0,0,1,1.3.85,3.28,3.28,0,0,1,.58,1.34,10.45,10.45,0,0,1,.14,2v5.08q0,.87.72.87a5.18,5.18,0,0,0,.9-.1v1.72a6.94,6.94,0,0,1-1.46.13,2.13,2.13,0,0,1-1.43-.46,1.82,1.82,0,0,1-.58-1.29,4.93,4.93,0,0,1-4,1.88,3.68,3.68,0,0,1-2.66-.88,3.2,3.2,0,0,1-.91-2.41,2.7,2.7,0,0,1,1.36-2.5,10.34,10.34,0,0,1,4-1.11l2.07-.24v-2.87a4.63,4.63,0,0,0-2.37-.47A5.27,5.27,0,0,0,364.2,379.07Zm-.59,6.59c0,1.15.66,1.72,2,1.72A4.62,4.62,0,0,0,369,386v-2.63l-2,.27a7.56,7.56,0,0,0-2.59.71A1.46,1.46,0,0,0,363.61,385.66Z"/><path class="cls-1" d="M377.58,378.83v6.63q0,1.77,1.56,1.77A5.42,5.42,0,0,0,381,387l.2,1.72a6.76,6.76,0,0,1-2.51.41,2.78,2.78,0,0,1-2.28-.91,4,4,0,0,1-.73-2.51v-6.83h-2.23v-1.49l2.23-.25v-2.95l1.93-.36v3.31h3.18v1.74Z"/><path class="cls-1" d="M382.61,388.79v-1.72h2.57v-8.24h-2.57v-1.74h4.49v10h2.44v1.72Zm3.39-14.6c-.95,0-1.42-.46-1.42-1.36a1.24,1.24,0,0,1,1.42-1.39,1.48,1.48,0,0,1,1,.35,1.31,1.31,0,0,1,.39,1,1.26,1.26,0,0,1-.39,1A1.47,1.47,0,0,1,386,374.19Z"/><path class="cls-1" d="M396.34,376.83q5.31,0,5.31,6.09c0,4.1-1.78,6.16-5.36,6.16a4.76,4.76,0,0,1-4-1.65,7.2,7.2,0,0,1-1.27-4.49Q391,376.84,396.34,376.83Zm0,10.45a2.81,2.81,0,0,0,2.53-1.09,5.86,5.86,0,0,0,.73-3.25,5.78,5.78,0,0,0-.74-3.25,2.89,2.89,0,0,0-2.54-1.06,2.85,2.85,0,0,0-2.52,1.06,5.64,5.64,0,0,0-.75,3.23,5.81,5.81,0,0,0,.76,3.27A2.86,2.86,0,0,0,396.34,387.28Z"/><path class="cls-1" d="M403.76,388.79v-1.72h1.69v-8.24h-1.66v-1.74h3.44v1.31a5.31,5.31,0,0,1,4.1-1.57,3.72,3.72,0,0,1,3,1.09,5.3,5.3,0,0,1,.9,3.4v5.75h1.66v1.72h-5.57v-1.72h2v-5.59a3.62,3.62,0,0,0-.5-2.12,2.41,2.41,0,0,0-2-.68,5.35,5.35,0,0,0-1.92.36,4.64,4.64,0,0,0-1.49.85v7.18h1.95v1.72Z"/></svg>