<svg width="120" height="14" viewBox="0 0 120 14" xmlns="http://www.w3.org/2000/svg"><g fill="#000" fill-rule="nonzero"><path d="M80.84.15h-2.859a.257.257 0 0 0-.263.264v12.3c0 .151.113.264.263.264h2.86c.15 0 .262-.113.262-.263V.414A.257.257 0 0 0 80.84.15zM71.624 8.84c1.43-.865 2.257-2.295 2.257-4.063C73.88 1.994 71.85 0 68.2 0h-2.972c-.677 0-1.317.263-1.806.752l-1.241 1.242a2.533 2.533 0 0 0-.753 1.805v8.878c0 .15.113.263.264.263h2.859c.15 0 .263-.112.263-.263v-2.37c0-.338.301-.64.64-.64h2.595c.226 0 .414.114.564.302l1.844 2.859c.037.075.113.112.225.112h2.709c.338 0 .526-.376.338-.677l-2.106-3.16c-.113-.075-.075-.188 0-.263zm-3.8-1.655h-2.783a.257.257 0 0 1-.264-.263V3.197c0-.338.301-.639.64-.639h2.407c1.73 0 2.709.828 2.709 2.257 0 1.392-.978 2.37-2.709 2.37zM26.633.15h-2.859a.257.257 0 0 0-.263.264v6.47c0 2.257-1.129 3.498-3.273 3.498-2.182 0-3.272-1.24-3.272-3.498V.414a.257.257 0 0 0-.264-.264h-2.859a.257.257 0 0 0-.263.264v6.921c0 .527.038 1.016.113 1.505.113.677.414 1.28.903 1.768l1.617 1.618c.602.602 1.43.94 2.257.94h3.499c.865 0 1.655-.338 2.257-.94l1.617-1.618c.49-.489.79-1.09.903-1.768.075-.451.113-.94.113-1.505V.414c0-.15-.113-.264-.226-.264zM10.608.15H3.8c-.677 0-1.316.264-1.805.753L.752 2.144A2.533 2.533 0 0 0 0 3.95v8.727c0 .15.113.263.263.263h2.86c.15 0 .263-.112.263-.263V9.555c0-.339.3-.64.64-.64h4.852c.15 0 .263-.112.263-.263v-2.22a.257.257 0 0 0-.263-.263H3.61a.257.257 0 0 1-.263-.263v-2.37c0-.339.3-.64.64-.64h6.62c.15 0 .263-.112.263-.263V.413a.257.257 0 0 0-.263-.263zM42.132.15H29.379a.257.257 0 0 0-.263.264v2.22c0 .15.113.263.263.263h4.063c.339 0 .64.3.64.64v9.178c0 .15.112.263.263.263h2.859c.15 0 .263-.113.263-.263V3.536c0-.339.301-.64.64-.64h2.106a.623.623 0 0 0 .452-.188l1.542-1.542a.694.694 0 0 0 .188-.451V.414a.257.257 0 0 0-.263-.264zM115.034.489l-3.799 6.47a.282.282 0 0 1-.451 0l-3.8-6.47a.663.663 0 0 0-.564-.3h-.64c-.413 0-.827.15-1.128.45l-1.806 1.806c-.3.301-.451.715-.451 1.129v9.14c0 .151.113.264.263.264h2.86c.15 0 .263-.113.263-.263V4.4c0-.075.075-.075.112-.037l3.725 6.207c.112.188.338.3.564.3h1.768a.663.663 0 0 0 .564-.3l3.724-6.207c.038-.038.113-.038.113.037v8.314c0 .15.113.263.263.263h2.86c.15 0 .263-.113.263-.263V.79a.66.66 0 0 0-.64-.64h-3.423c-.339 0-.527.15-.64.339zM57.63.15h-2.859a.257.257 0 0 0-.263.264v6.47c0 2.257-1.129 3.498-3.273 3.498-2.182 0-3.273-1.24-3.273-3.498V.414A.257.257 0 0 0 47.7.15H44.84a.257.257 0 0 0-.263.264v6.921c0 .527.037 1.016.113 1.505.113.677.413 1.28.902 1.768l1.618 1.618c.602.602 1.43.94 2.257.94h3.499c.865 0 1.655-.338 2.257-.94l1.617-1.618c.49-.489.79-1.09.903-1.768.075-.451.113-.94.113-1.505V.414c.037-.15-.075-.264-.226-.264zM98.257.15h-2.859a.257.257 0 0 0-.263.264v6.47c0 2.257-1.129 3.498-3.273 3.498-2.182 0-3.273-1.24-3.273-3.498V.414a.257.257 0 0 0-.263-.264h-2.859a.257.257 0 0 0-.263.264v6.921c0 .527.037 1.016.113 1.505.112.677.413 1.28.902 1.768l1.618 1.618c.602.602 1.43.94 2.257.94h3.498c.866 0 1.656-.338 2.258-.94l1.617-1.618c.49-.489.79-1.09.903-1.768.075-.451.113-.94.113-1.505V.414c.037-.15-.075-.264-.226-.264z"/></g></svg>
