<?xml version="1.0" encoding="utf-8"?>
<!-- Generator: Adobe Illustrator 21.0.2, SVG Export Plug-In . SVG Version: 6.00 Build 0)  -->
<svg version="1.1" xmlns="http://www.w3.org/2000/svg" xmlns:xlink="http://www.w3.org/1999/xlink" x="0px" y="0px"
	 viewBox="0 0 347.6 37.2" style="enable-background:new 0 0 347.6 37.2;" xml:space="preserve">
<style type="text/css">
	.st0{fill:#E20074;}
</style>
<g>
	<path class="st0" d="M0,24.6v-7.5h7.5v7.5H0z"/>
	<path class="st0" d="M23,24.6v-7.5h7.5v7.5H23z"/>
	<path class="st0" d="M45.6,24.6v-7.5h7.5v7.5H45.6z"/>
	<path class="st0" d="M68.2,24.6v-7.5h7.5v7.5H68.2z"/>
	<path class="st0" d="M30.1,0H0.4L0,13.1l2,0.3c0.4-3.9,1.4-6.7,3-8.6c1.8-2,4.2-3,7.3-3.1v27.5c0,2.4-0.3,4-1,4.7
		c-0.6,0.6-1.6,1-3,1.1c-0.4,0-1.1,0.1-2.2,0.1v2.1h18.4v-2.1c-1,0-1.7,0-2.2-0.1c-1.4-0.1-2.4-0.5-3-1.1c-0.7-0.7-1-2.3-1-4.7V1.8
		c3.1,0.1,5.5,1.1,7.3,3.1c1.7,1.9,2.7,4.7,3,8.6l2-0.3L30.1,0z"/>
</g>
<g>
	<path class="st0" d="M120.9,28.7V13.6h4.2c1.2,0,2.1,0.1,2.9,0.4c1.3,0.5,2.3,1.5,2.9,3c0.5,1.1,0.7,2.4,0.7,3.9
		c0,2.6-0.6,4.5-1.8,5.9c-0.7,0.8-1.5,1.3-2.5,1.6c-0.5,0.1-1.2,0.2-2,0.2H120.9z M122.7,27.1h2.2c0.9,0,1.6-0.1,2-0.2
		c0.8-0.3,1.5-1,2-2.1c0.4-1,0.7-2.2,0.7-3.8c0-2.1-0.5-3.6-1.4-4.6c-0.5-0.5-1-0.8-1.5-1c-0.4-0.1-1-0.2-1.6-0.2h-2.4V27.1z"/>
	<path class="st0" d="M141.9,24h-7c0,0.7,0.1,1.3,0.3,1.8c0.5,1.3,1.3,1.9,2.5,1.9c0.9,0,1.6-0.4,2-1.2c0.1-0.3,0.3-0.7,0.4-1.1h1.7
		c-0.2,0.8-0.4,1.5-0.9,2.1c-0.8,1-1.8,1.5-3.2,1.5c-1.5,0-2.7-0.6-3.5-1.7c-0.7-1-1-2.3-1-3.8c0-1.6,0.4-2.9,1.2-4
		c0.8-1,1.9-1.5,3.2-1.5c1.1,0,2,0.3,2.8,1c0.8,0.7,1.3,1.9,1.5,3.3C141.8,22.8,141.9,23.3,141.9,24z M140.1,22.6
		c-0.1-0.7-0.2-1.4-0.4-1.8c-0.4-0.9-1.1-1.4-2.1-1.4c-0.9,0-1.6,0.4-2.1,1.3c-0.3,0.5-0.5,1.2-0.6,2H140.1z"/>
	<path class="st0" d="M151.3,28.7h-1.6v-1.4c-0.8,1.2-1.8,1.7-3.1,1.7c-1.3,0-2.2-0.5-2.7-1.4c-0.2-0.4-0.4-0.9-0.4-1.4
		c0-0.4,0-0.8,0-1.2v-6.7h1.7v6.1c0,0.9,0.1,1.6,0.2,2c0.1,0.4,0.3,0.7,0.6,0.9c0.3,0.2,0.7,0.3,1.1,0.3c0.8,0,1.4-0.3,1.9-0.9
		c0.3-0.4,0.5-0.9,0.6-1.6c0.1-0.4,0.1-1,0.1-1.8v-5h1.7V28.7z"/>
	<path class="st0" d="M153.2,19.7v-1.4h1.5v-1.6l1.4-1.8h0.3v3.4h1.8v1.4h-1.8v6.2c0,0.7,0,1.1,0.1,1.2c0.2,0.3,0.5,0.5,0.9,0.5
		c0.2,0,0.5,0,0.8-0.1v1.4c-0.5,0.1-0.8,0.1-1.2,0.1c-1,0-1.7-0.3-2-0.8c-0.1-0.2-0.2-0.6-0.3-1.1c0-0.3,0-0.8,0-1.4v-6H153.2z"/>
	<path class="st0" d="M159.6,25.8h1.8c0,1.2,0.7,1.9,2.1,1.9c0.6,0,1.1-0.2,1.5-0.5c0.3-0.3,0.4-0.6,0.4-1c0-0.6-0.3-1.1-0.9-1.4
		c-0.2-0.1-0.8-0.4-1.7-0.7c-1-0.4-1.6-0.8-2-1.2c-0.5-0.5-0.7-1.2-0.7-1.9c0-0.9,0.3-1.6,1-2.2c0.6-0.5,1.3-0.7,2.3-0.7
		c1.4,0,2.4,0.5,2.9,1.4c0.3,0.4,0.5,1,0.5,1.6h-1.7c0-0.5-0.2-0.8-0.4-1.1c-0.3-0.4-0.8-0.6-1.4-0.6c-0.5,0-1,0.2-1.2,0.5
		c-0.2,0.3-0.3,0.6-0.3,1c0,0.4,0.1,0.8,0.5,1c0.3,0.3,0.9,0.5,1.7,0.9c1.1,0.4,1.9,0.8,2.4,1.2c0.7,0.6,1,1.3,1,2.1
		c0,0.9-0.3,1.7-1,2.3c-0.6,0.5-1.5,0.8-2.6,0.8c-1.6,0-2.8-0.5-3.4-1.5C159.8,27,159.6,26.4,159.6,25.8z"/>
	<path class="st0" d="M175.3,25h1.7c0,0.8-0.3,1.6-0.7,2.3c-0.8,1.2-1.9,1.7-3.3,1.7c-1.5,0-2.6-0.5-3.4-1.6c-0.8-1-1.1-2.3-1.1-3.9
		c0-1.5,0.4-2.8,1.1-3.8c0.8-1.1,2-1.7,3.4-1.7c1.3,0,2.4,0.5,3.1,1.4c0.5,0.6,0.8,1.3,0.9,2.2h-1.8c-0.1-0.6-0.3-1-0.5-1.4
		c-0.4-0.6-1-0.9-1.8-0.9c-0.8,0-1.5,0.4-2,1.1c-0.5,0.8-0.8,1.8-0.8,3.1c0,1.3,0.3,2.3,0.8,3.1c0.5,0.7,1.2,1.1,2.1,1.1
		c0.8,0,1.5-0.4,1.9-1.2C175,26.1,175.2,25.6,175.3,25z"/>
	<path class="st0" d="M178.7,28.7V13.6h1.7v5.9c0.7-1.1,1.7-1.6,3-1.6c1.3,0,2.2,0.5,2.7,1.4c0.3,0.5,0.5,1.4,0.5,2.6v6.8h-1.7v-6.6
		c0-0.9-0.1-1.6-0.3-1.9c-0.3-0.6-0.9-0.9-1.6-0.9c-1,0-1.8,0.5-2.2,1.6c-0.2,0.5-0.3,1.5-0.3,2.9v4.9H178.7z"/>
	<path class="st0" d="M197.4,24h-7c0,0.7,0.1,1.3,0.3,1.8c0.5,1.3,1.3,1.9,2.5,1.9c0.9,0,1.6-0.4,2-1.2c0.2-0.3,0.3-0.7,0.4-1.1h1.7
		c-0.2,0.8-0.4,1.5-0.9,2.1c-0.8,1-1.8,1.5-3.2,1.5c-1.5,0-2.7-0.6-3.5-1.7c-0.7-1-1-2.3-1-3.8c0-1.6,0.4-2.9,1.2-4
		c0.8-1,1.9-1.5,3.2-1.5c1.1,0,2,0.3,2.8,1c0.8,0.7,1.3,1.9,1.5,3.3C197.3,22.8,197.4,23.3,197.4,24z M195.6,22.6
		c-0.1-0.7-0.2-1.4-0.4-1.8c-0.4-0.9-1.1-1.4-2.1-1.4c-0.9,0-1.6,0.4-2.1,1.3c-0.3,0.5-0.5,1.2-0.6,2H195.6z"/>
	<path class="st0" d="M205.3,28.7V15.2H201v-1.6h10.4v1.6h-4.3v13.5H205.3z"/>
	<path class="st0" d="M219.1,24h-7c0,0.7,0.1,1.3,0.3,1.8c0.5,1.3,1.3,1.9,2.5,1.9c0.9,0,1.6-0.4,2-1.2c0.2-0.3,0.3-0.7,0.4-1.1h1.7
		c-0.2,0.8-0.4,1.5-0.9,2.1c-0.8,1-1.8,1.5-3.2,1.5c-1.5,0-2.7-0.6-3.5-1.7c-0.7-1-1-2.3-1-3.8c0-1.6,0.4-2.9,1.2-4
		c0.8-1,1.9-1.5,3.2-1.5c1.1,0,2,0.3,2.8,1c0.8,0.7,1.3,1.9,1.5,3.3C219.1,22.8,219.1,23.3,219.1,24z M217.4,22.6
		c-0.1-0.7-0.2-1.4-0.4-1.8c-0.4-0.9-1.1-1.4-2.1-1.4c-0.9,0-1.6,0.4-2.1,1.3c-0.3,0.5-0.5,1.2-0.6,2H217.4z"/>
	<path class="st0" d="M221.3,28.7V13.6h1.7v15.1H221.3z"/>
	<path class="st0" d="M233.9,24h-7c0,0.7,0.1,1.3,0.3,1.8c0.5,1.3,1.3,1.9,2.5,1.9c0.9,0,1.6-0.4,2-1.2c0.2-0.3,0.3-0.7,0.4-1.1h1.7
		c-0.2,0.8-0.4,1.5-0.9,2.1c-0.8,1-1.8,1.5-3.2,1.5c-1.5,0-2.7-0.6-3.5-1.7c-0.7-1-1-2.3-1-3.8c0-1.6,0.4-2.9,1.2-4
		c0.8-1,1.9-1.5,3.2-1.5c1.1,0,2,0.3,2.8,1c0.8,0.7,1.3,1.9,1.5,3.3C233.9,22.8,233.9,23.3,233.9,24z M232.2,22.6
		c-0.1-0.7-0.2-1.4-0.4-1.8c-0.4-0.9-1.1-1.4-2.1-1.4c-0.9,0-1.6,0.4-2.1,1.3c-0.3,0.5-0.5,1.2-0.6,2H232.2z"/>
	<path class="st0" d="M236,28.7V13.6h1.7v8.9l4.1-4.2h2.2l-3.9,3.9l4.1,6.5h-2l-3.3-5.3l-1.2,1.2v4.1H236z"/>
	<path class="st0" d="M249.7,18c1.4,0,2.5,0.5,3.4,1.5c0.8,1,1.2,2.3,1.2,4c0,1.9-0.5,3.3-1.4,4.3c-0.8,0.8-1.8,1.2-3.1,1.2
		c-1.5,0-2.7-0.5-3.5-1.6c-0.8-1-1.2-2.4-1.2-4c0-1.5,0.4-2.7,1.1-3.7C247,18.6,248.2,18,249.7,18z M249.7,19.4c-0.8,0-1.5,0.3-2,1
		c-0.6,0.8-0.9,1.8-0.9,3.1c0,1.4,0.3,2.4,0.8,3.2c0.5,0.7,1.2,1,2,1c0.8,0,1.4-0.3,1.9-0.9c0.6-0.8,0.9-1.9,0.9-3.3
		c0-1.3-0.3-2.3-0.8-3.1C251.2,19.7,250.5,19.4,249.7,19.4z"/>
	<path class="st0" d="M256.3,28.7V18.3h1.6v1.3c0.3-0.5,0.7-0.8,1-1.1c0.5-0.4,1.2-0.6,1.9-0.6c1.3,0,2.2,0.6,2.7,1.7
		c0.8-1.2,1.8-1.7,3.1-1.7c0.7,0,1.3,0.2,1.8,0.6c0.6,0.4,0.9,1,1.1,1.8c0.1,0.3,0.1,0.7,0.1,1.2v7.2h-1.7v-6.6
		c0-0.8-0.1-1.4-0.2-1.7c-0.2-0.7-0.8-1.1-1.6-1.1c-1,0-1.7,0.5-2.1,1.6c-0.1,0.4-0.2,1.1-0.2,2.3v5.5h-1.7V22c0-1-0.1-1.7-0.3-2
		c-0.3-0.4-0.7-0.6-1.3-0.6c-0.6,0-1.1,0.2-1.5,0.7c-0.4,0.4-0.7,1-0.8,1.8c0,0.4-0.1,0.8-0.1,1.4v5.5H256.3z"/>
	<g>
		<path class="st0" d="M276,24.3h3.3c0.1,0.6,0.2,1,0.4,1.3c0.4,0.6,0.9,0.9,1.7,0.9c0.6,0,1.1-0.2,1.5-0.6c0.3-0.3,0.5-0.8,0.5-1.3
			c0-0.6-0.2-1.1-0.7-1.5c-0.2-0.2-0.5-0.4-0.9-0.5c-0.1,0-0.5-0.2-1.1-0.4c-1.2-0.4-2.1-0.9-2.7-1.3c-1.1-0.9-1.6-2-1.6-3.4
			c0-1.2,0.4-2.2,1.1-3c0.9-0.8,2-1.3,3.5-1.3c1.9,0,3.3,0.6,4.2,1.9c0.4,0.6,0.7,1.4,0.9,2.4h-3.2c-0.1-0.6-0.3-1-0.6-1.3
			c-0.4-0.3-0.8-0.5-1.4-0.5c-0.5,0-0.9,0.1-1.2,0.4c-0.3,0.3-0.5,0.7-0.5,1.2c0,0.6,0.2,1,0.8,1.4c0.4,0.3,1.1,0.6,2.2,0.9
			c1.3,0.4,2.3,0.9,3,1.4c1,0.8,1.5,1.9,1.5,3.3s-0.5,2.5-1.4,3.3c-1,0.9-2.3,1.3-3.9,1.3c-2,0-3.4-0.7-4.4-2.2
			C276.4,26.1,276.1,25.3,276,24.3z"/>
		<path class="st0" d="M286.9,20.3v-1.9h1.5v-0.7l2.1-2.8h1v3.5h1.8v1.9h-1.8v4.9c0,0.5,0,0.9,0.1,1.1c0.1,0.3,0.4,0.5,0.9,0.5
			c0.2,0,0.5-0.1,0.8-0.2v2.2c-0.6,0.1-1.2,0.2-1.8,0.2c-1.2,0-2.1-0.3-2.5-1c-0.2-0.4-0.4-0.9-0.4-1.6c0-0.2,0-0.6,0-1.3v-4.8
			H286.9z"/>
		<path class="st0" d="M295.1,16.7v-3h3.1v3H295.1z M295.1,28.7V18.3h3.1v10.4H295.1z"/>
		<path class="st0" d="M301.3,28.7v-8.4h-1.3v-2h1.3v-0.9c0-0.8,0-1.4,0.1-1.8c0.3-1.6,1.5-2.3,3.5-2.3c0.1,0,0.5,0,1.3,0.1v2.3
			c-0.3,0-0.6-0.1-0.8-0.1c-0.5,0-0.8,0.2-0.9,0.5c-0.1,0.2-0.1,0.6-0.1,1.1v1.2h1.6v2h-1.6v8.4H301.3z"/>
		<path class="st0" d="M307,20.3v-1.9h1.5v-0.7l2.1-2.8h1v3.5h1.8v1.9h-1.8v4.9c0,0.5,0,0.9,0.1,1.1c0.1,0.3,0.4,0.5,0.9,0.5
			c0.2,0,0.5-0.1,0.8-0.2v2.2c-0.6,0.1-1.2,0.2-1.8,0.2c-1.2,0-2.1-0.3-2.5-1c-0.2-0.4-0.4-0.9-0.4-1.6c0-0.2,0-0.6,0-1.3v-4.8H307z
			"/>
		<path class="st0" d="M324.4,18.3v10.4h-3v-1c-0.7,0.9-1.6,1.3-2.7,1.3c-1.3,0-2.3-0.5-2.9-1.4c-0.4-0.6-0.6-1.5-0.6-2.7v-6.6h3.1
			v6.2c0,0.7,0.1,1.2,0.2,1.5c0.2,0.5,0.6,0.7,1.1,0.7c0.7,0,1.1-0.4,1.4-1.1c0.2-0.4,0.2-1.1,0.2-2.1v-5.1H324.4z"/>
		<path class="st0" d="M326.9,28.7V18.3h3v1c0.7-0.9,1.6-1.3,2.7-1.3c1.3,0,2.3,0.5,2.9,1.4c0.4,0.6,0.6,1.5,0.6,2.7v6.6h-3.1v-6.2
			c0-0.7-0.1-1.2-0.2-1.5c-0.2-0.5-0.6-0.7-1.1-0.7c-0.6,0-1.1,0.4-1.4,1.1c-0.1,0.4-0.2,1.1-0.2,2.1v5.1H326.9z"/>
		<path class="st0" d="M338.3,29.6h3.1c0.2,0.8,0.7,1.1,1.5,1.1c0.7,0,1.2-0.3,1.5-0.9c0.2-0.5,0.3-1.2,0.3-2.1v-0.5
			c-0.6,0.8-1.5,1.2-2.5,1.2c-1.2,0-2.2-0.4-3-1.3c-0.8-1-1.2-2.2-1.2-3.9c0-1.6,0.4-2.9,1.2-3.9c0.8-1,1.8-1.4,3-1.4
			c1,0,1.8,0.4,2.5,1.2v-0.9h3v8.9c0,1.7-0.3,3-0.8,3.8c-0.8,1.2-2.1,1.8-3.9,1.8c-1.6,0-2.8-0.4-3.6-1.1
			C338.7,31.2,338.4,30.5,338.3,29.6z M342.8,20.3c-0.5,0-1,0.3-1.3,0.8c-0.3,0.6-0.5,1.3-0.5,2.2c0,1.1,0.2,2,0.7,2.6
			c0.3,0.4,0.6,0.6,1.1,0.6c0.6,0,1.1-0.4,1.5-1c0.3-0.6,0.4-1.3,0.4-2.1c0-0.9-0.2-1.6-0.5-2.2C343.8,20.5,343.4,20.3,342.8,20.3z"
			/>
	</g>
</g>
</svg>
