<svg id="Ebene_1" data-name="Ebene 1" xmlns="http://www.w3.org/2000/svg" viewBox="0 0 398.06 80.64"><defs><style>.cls-1{fill:#d2ddea;}.cls-2,.cls-4,.cls-7{fill:none;stroke-miterlimit:3.86;}.cls-2{stroke:#d2ddea;stroke-width:0.13px;}.cls-3{fill:#004b88;}.cls-4{stroke:#004b88;stroke-width:0.16px;}.cls-5{fill:#fff;}.cls-5,.cls-6,.cls-7{fill-rule:evenodd;}.cls-6,.cls-8{fill:#1d1d1b;}.cls-7{stroke:#1d1d1b;stroke-width:0.63px;}</style></defs><title>Mittext_svg_01</title><path class="cls-1" d="M80.48-.35H0V80.13H80.48a112.89,112.89,0,0,0,7.19-40.24C87.72,25.38,85.35,11.47,80.48-.35Z" transform="translate(0.06 0.43)"/><path class="cls-2" d="M80.48-.35H0V80.13H80.48a112.89,112.89,0,0,0,7.19-40.24C87.72,25.38,85.35,11.47,80.48-.35Z" transform="translate(0.06 0.43)"/><path class="cls-3" d="M174.39,80.13H80.48a113,113,0,0,0,7.19-40.24c.07-14.17-2.28-28.42-7.19-40.24h93.91Z" transform="translate(0.06 0.43)"/><path class="cls-4" d="M174.39,80.13H80.48a113,113,0,0,0,7.19-40.24c.07-14.17-2.28-28.42-7.19-40.24h93.91Z" transform="translate(0.06 0.43)"/><path class="cls-5" d="M134,14.37a1.33,1.33,0,0,1,1.33-1.32H138a1.32,1.32,0,0,1,1.33,1.32V38.54A1.34,1.34,0,0,1,138,39.87h-2.64A1.33,1.33,0,0,1,134,38.54v-10H123.2v10a1.33,1.33,0,0,1-1.33,1.33h-2.66a1.34,1.34,0,0,1-1.33-1.33V14.37a1.33,1.33,0,0,1,1.33-1.32h2.67a1.33,1.33,0,0,1,1.33,1.32V24.1H134Z" transform="translate(0.06 0.43)"/><path class="cls-5" d="M166.85,14.37c.65-.73.75-1.33-.14-1.32l-3.94,0a2.84,2.84,0,0,0-2.61,1l-9.94,11.1V14.4a1.3,1.3,0,0,0-1.3-1.33h-2.7a1.32,1.32,0,0,0-1.33,1.33V38.56a1.33,1.33,0,0,0,1.32,1.33h2.72a1.3,1.3,0,0,0,1.29-1.33V32.94l4.57-5.08,6.6,10.7a2.39,2.39,0,0,0,1.82,1.33H167c.73,0,1-.6.51-1.33l-9.16-14.71Z" transform="translate(0.06 0.43)"/><path class="cls-5" d="M104.5,13.05a1.77,1.77,0,0,1,1.78,1.32l8.25,24.17a.92.92,0,0,1-.87,1.33H111a2.08,2.08,0,0,1-1.8-1.33l-1.76-5.44H98.37l-1.75,5.44a2.08,2.08,0,0,1-1.81,1.33H92.17a.93.93,0,0,1-.88-1.33l8.26-24.17a1.77,1.77,0,0,1,1.78-1.32ZM99.35,28.58h6.06l-3-9.37Z" transform="translate(0.06 0.43)"/><polygon class="cls-6" points="7.86 55.65 9.16 55.65 12.4 59.62 15.64 55.65 16.95 55.65 16.95 65.29 15.55 65.29 15.55 57.73 12.51 61.52 12.29 61.52 9.25 57.76 9.25 65.29 7.86 65.29 7.86 55.65"/><polygon class="cls-6" points="19.17 65.29 19.17 55.65 24.66 55.65 24.66 56.89 20.56 56.89 20.56 59.83 24.51 59.83 24.51 61.07 20.56 61.07 20.56 64.04 24.8 64.04 24.8 65.29 19.17 65.29"/><path class="cls-6" d="M26.67,64.86V55.21h2.44a3.39,3.39,0,0,1,2.34.74,2.54,2.54,0,0,1,.83,2,2.37,2.37,0,0,1-1.61,2.34,5.83,5.83,0,0,1,1.57,1.8c.33.49.69,1,1.06,1.54s.66.94.85,1.23H32.5L31.28,63a13,13,0,0,0-1.14-1.54,1.89,1.89,0,0,0-1.49-.74h-.58v4.17Zm1.4-5.42H29c1.23,0,1.84-.5,1.84-1.49s-.6-1.49-1.82-1.49h-.95Z" transform="translate(0.06 0.43)"/><path class="cls-6" d="M42.38,55.87v1.52a6.23,6.23,0,0,0-3.32-1.06,3.86,3.86,0,0,0-2.78,1.06,3.8,3.8,0,0,0,0,5.31,3.87,3.87,0,0,0,2.79,1,6.49,6.49,0,0,0,3.46-1.06v1.5a8,8,0,0,1-3.41.83,5.23,5.23,0,0,1-3.89-1.45,4.64,4.64,0,0,1-1.45-3.41,4.85,4.85,0,0,1,1.5-3.66A5.31,5.31,0,0,1,39,55.06a6.78,6.78,0,0,1,1.23.13A13.06,13.06,0,0,1,42.38,55.87Z" transform="translate(0.06 0.43)"/><path class="cls-6" d="M43.25,60a4.81,4.81,0,0,1,1.44-3.52,5.09,5.09,0,0,1,3.77-1.46,5.2,5.2,0,0,1,3.73,1.41,5,5,0,0,1,0,7.11A5.17,5.17,0,0,1,48.42,65a5.1,5.1,0,0,1-3.72-1.43A4.75,4.75,0,0,1,43.25,60Zm1.43,0a3.57,3.57,0,0,0,1.08,2.65,4,4,0,0,0,5.4,0,3.8,3.8,0,0,0,0-5.29,4,4,0,0,0-5.41,0A3.58,3.58,0,0,0,44.68,60Z" transform="translate(0.06 0.43)"/><path class="cls-6" d="M54.84,62.35a3.06,3.06,0,0,0,2.49,1.42,1.81,1.81,0,0,0,1.11-.34,1.07,1.07,0,0,0,.44-.89,1.39,1.39,0,0,0-.31-.9,5.9,5.9,0,0,0-1.42-1.07,13,13,0,0,1-1.72-1.26,2.09,2.09,0,0,1-.7-1.65,2.38,2.38,0,0,1,.81-1.91,3.18,3.18,0,0,1,2.14-.69,3.64,3.64,0,0,1,2.15.68v1.54a3.74,3.74,0,0,0-1-.67,2.86,2.86,0,0,0-1.3-.3,1.74,1.74,0,0,0-1.12.34,1,1,0,0,0-.42.82,1.21,1.21,0,0,0,.4.9,8.11,8.11,0,0,0,1.35.92,7.23,7.23,0,0,1,1.91,1.53,2.44,2.44,0,0,1,.49,1.56,2.54,2.54,0,0,1-.76,1.9,2.67,2.67,0,0,1-1.92.73,4.05,4.05,0,0,1-2.64-.89Z" transform="translate(0.06 0.43)"/><path class="cls-6" d="M61.38,55.21h1.4V61a2.54,2.54,0,0,0,.81,2.13,3,3,0,0,0,1.85.63h.06a3.36,3.36,0,0,0,2-.59,2.43,2.43,0,0,0,.85-2V55.21h1.39v5.86A3.68,3.68,0,0,1,68.6,64a4.48,4.48,0,0,1-3.06,1,4.38,4.38,0,0,1-3-1,3.58,3.58,0,0,1-1.13-2.83Z" transform="translate(0.06 0.43)"/><polygon class="cls-6" points="71.53 55.65 72.92 55.65 72.92 64.04 77.25 64.04 77.25 65.29 71.53 65.29 71.53 55.65"/><path class="cls-7" d="M4.38,53.44c14.84-5.12,46.42-11.88,77.4-6.64" transform="translate(0.06 0.43)"/><polygon class="cls-6" points="35.87 27.89 33.63 28.65 32.87 30.9 32.11 28.65 29.86 27.89 32.11 27.13 32.87 24.88 33.63 27.13 35.87 27.89"/><polygon class="cls-6" points="43.35 20.69 41.1 21.45 40.34 23.7 39.59 21.45 37.34 20.69 39.59 19.93 40.34 17.68 41.1 19.93 43.35 20.69"/><polygon class="cls-6" points="52.3 25.35 50.06 26.11 49.3 28.36 48.54 26.11 46.29 25.35 48.54 24.59 49.3 22.35 50.06 24.59 52.3 25.35"/><polygon class="cls-6" points="46.45 41.37 44.2 42.13 43.44 44.37 42.68 42.13 40.44 41.37 42.68 40.61 43.44 38.36 44.2 40.61 46.45 41.37"/><path class="cls-6" d="M188.58,71.07V59.61h3a3.39,3.39,0,0,1,2.25.71,2.63,2.63,0,0,1,.87,2.11A2.43,2.43,0,0,1,193.06,65v0a2.71,2.71,0,0,1,2.2,3,2.81,2.81,0,0,1-1.11,2.44,4.36,4.36,0,0,1-2.53.67Zm1.29-10.38v3.86H191q2.46,0,2.46-2c0-1.22-.76-1.82-2.27-1.82Zm0,4.94V70h1.49c1.75,0,2.62-.71,2.62-2.15a2,2,0,0,0-.71-1.63,2.63,2.63,0,0,0-1.75-.57Z" transform="translate(0.06 0.43)"/><path class="cls-6" d="M197.41,71.07V63.16h1.13v1.53h0A2.67,2.67,0,0,1,201.22,63v1.21a2.3,2.3,0,0,0-2,1,4.44,4.44,0,0,0-.66,2.6v3.27Z" transform="translate(0.06 0.43)"/><path class="cls-6" d="M206.59,71.07V70h0a2.23,2.23,0,0,1-.75.75,3,3,0,0,1-1.68.48,2.07,2.07,0,0,1-1.55-.58A2.23,2.23,0,0,1,202,69a2.1,2.1,0,0,1,1.37-1.92,5.29,5.29,0,0,1,2.4-.54,5,5,0,0,0,.78,0,12.64,12.64,0,0,0-.05-1.5,1.29,1.29,0,0,0-1.44-1.11c-1,0-1.5.42-1.61,1.27H202.2a2,2,0,0,1,.61-1.48A3.06,3.06,0,0,1,205,63c1.76,0,2.65.85,2.65,2.54v5.55Zm0-3.59h-.67a3.78,3.78,0,0,0-1.6.33,1.46,1.46,0,0,0-1,1.34,1.14,1.14,0,0,0,.33.86,1.12,1.12,0,0,0,.78.29,1.92,1.92,0,0,0,1.06-.33,2,2,0,0,0,.78-.9A4,4,0,0,0,206.56,67.48Z" transform="translate(0.06 0.43)"/><path class="cls-6" d="M212.2,66.2l.67.4a9.49,9.49,0,0,1,1.22.8,1.89,1.89,0,0,1,.63,1.46c0,1.59-1,2.39-2.94,2.39a7.11,7.11,0,0,1-2.16-.33v-1a6.89,6.89,0,0,0,2,.41c1.28,0,1.92-.43,1.92-1.28a1.15,1.15,0,0,0-.53-.92c-.08-.06-.38-.23-.89-.5l-.72-.39a6.69,6.69,0,0,1-1.18-.73,2,2,0,0,1,.09-2.94,3.18,3.18,0,0,1,2-.56,9.15,9.15,0,0,1,1.85.26v1.05a5.07,5.07,0,0,0-1.84-.37,2,2,0,0,0-1.14.3.81.81,0,0,0,0,1.46Z" transform="translate(0.06 0.43)"/><path class="cls-6" d="M216.58,71.07V63.16h1.12v7.91Zm-.19-10V59.61h1.5V61.1Z" transform="translate(0.06 0.43)"/><rect class="cls-8" x="220.64" y="60.04" width="1.13" height="11.46"/><rect class="cls-8" x="224.08" y="66.8" width="5.05" height="1.14"/><path class="cls-6" d="M230.07,71.07l3.65-11.46h1.58L239,71.07h-1.29l-1.15-3.54h-4.08l-1.12,3.54Zm4.43-10.29-1.68,5.67h3.39l-1.67-5.67Z" transform="translate(0.06 0.43)"/><rect class="cls-8" x="240.65" y="60.04" width="1.13" height="11.46"/><path class="cls-6" d="M249.63,70.08V71a6.45,6.45,0,0,1-1.82.23A3.6,3.6,0,0,1,245,70.14a4.75,4.75,0,0,1-1-3.29,4.6,4.6,0,0,1,.75-2.82A2.75,2.75,0,0,1,247.05,63a2.57,2.57,0,0,1,2.07.85A3.2,3.2,0,0,1,249.8,66v.38h-4.55v.47a4.24,4.24,0,0,0,.56,2.18,2.43,2.43,0,0,0,2.25,1.29A7.11,7.11,0,0,0,249.63,70.08Zm-4.3-4.66h3.18a1.52,1.52,0,0,0-.33-1,1.37,1.37,0,0,0-1.18-.55A1.59,1.59,0,0,0,245.33,65.42Z" transform="translate(0.06 0.43)"/><path class="cls-6" d="M251.85,71.07V63.16H253V65h0c.37-1.33,1.11-2,2.21-2a1.77,1.77,0,0,1,2,1.81h0a3.06,3.06,0,0,1,.67-1.13,2.09,2.09,0,0,1,1.57-.68,1.81,1.81,0,0,1,1.52.72,2.79,2.79,0,0,1,.51,1.72v5.65h-1.13V66.68a7.64,7.64,0,0,0-.14-1.8,1,1,0,0,0-1-.78c-.61,0-1.1.45-1.49,1.33a6,6,0,0,0-.49,2.38v3.26h-1.13V66.68a6.64,6.64,0,0,0-.15-1.8,1,1,0,0,0-1-.78c-.6,0-1.09.45-1.48,1.32a5.88,5.88,0,0,0-.5,2.39v3.26Z" transform="translate(0.06 0.43)"/><path class="cls-6" d="M268.12,71.07V70h0a2.23,2.23,0,0,1-.75.75,3,3,0,0,1-1.68.48,2.07,2.07,0,0,1-1.55-.58,2.23,2.23,0,0,1-.57-1.63,2.1,2.1,0,0,1,1.37-1.92,5.29,5.29,0,0,1,2.4-.54,5,5,0,0,0,.78,0,12.64,12.64,0,0,0,0-1.5,1.3,1.3,0,0,0-1.44-1.11c-1,0-1.51.42-1.62,1.27h-1.25a2,2,0,0,1,.61-1.48,3,3,0,0,1,2.22-.73c1.78,0,2.66.85,2.66,2.54v5.55Zm0-3.59h-.66a3.8,3.8,0,0,0-1.61.33,1.44,1.44,0,0,0-1,1.34,1.14,1.14,0,0,0,.33.86,1.12,1.12,0,0,0,.78.29A1.92,1.92,0,0,0,267,70a2,2,0,0,0,.78-.9A4,4,0,0,0,268.09,67.48Z" transform="translate(0.06 0.43)"/><path class="cls-6" d="M271.86,71.07V63.16H273V65h0a2.51,2.51,0,0,1,2.47-2,1.82,1.82,0,0,1,1.52.72,2.79,2.79,0,0,1,.51,1.72v5.65h-1.13V66.68a7.08,7.08,0,0,0-.15-1.8,1,1,0,0,0-1-.78c-.69,0-1.25.45-1.68,1.32a5.23,5.23,0,0,0-.57,2.39v3.26Z" transform="translate(0.06 0.43)"/><path class="cls-6" d="M280.16,71.07V59.61h1.13V65h0a2.51,2.51,0,0,1,2.47-2,1.81,1.81,0,0,1,1.52.72,2.79,2.79,0,0,1,.51,1.72v5.65H284.7V66.68a7.6,7.6,0,0,0-.15-1.8,1,1,0,0,0-1-.78c-.69,0-1.25.45-1.69,1.32a5.35,5.35,0,0,0-.56,2.39v3.26Z" transform="translate(0.06 0.43)"/><path class="cls-6" d="M292.41,71.07V70h0a2.19,2.19,0,0,1-.74.75,3,3,0,0,1-1.68.48,2.09,2.09,0,0,1-1.56-.58,2.23,2.23,0,0,1-.57-1.63,2.1,2.1,0,0,1,1.37-1.92,5.29,5.29,0,0,1,2.4-.54,5,5,0,0,0,.78,0,10.63,10.63,0,0,0-.05-1.5,1.29,1.29,0,0,0-1.44-1.11c-1,0-1.5.42-1.61,1.27H288a2,2,0,0,1,.62-1.48,3,3,0,0,1,2.22-.73c1.77,0,2.65.85,2.65,2.54v5.55Zm0-3.59h-.66a3.83,3.83,0,0,0-1.61.33,1.46,1.46,0,0,0-1,1.34,1.07,1.07,0,0,0,1.11,1.15,2.1,2.1,0,0,0,1.84-1.23A4,4,0,0,0,292.38,67.48Z" transform="translate(0.06 0.43)"/><path class="cls-6" d="M195.45,53.71v1.34c-.57.24-.92.38-1.06.42a6.78,6.78,0,0,1-2,.26,3.74,3.74,0,0,1-3.5-2,8.34,8.34,0,0,1-.9-4.11,7.3,7.3,0,0,1,.93-4,3.74,3.74,0,0,1,3.39-1.75,3.56,3.56,0,0,1,2.63,1,3.18,3.18,0,0,1,.92,2.35h-1.46a2.22,2.22,0,0,0-.55-1.58,1.94,1.94,0,0,0-1.54-.65c-1.94,0-2.9,1.57-2.9,4.69a7.48,7.48,0,0,0,.59,3.21,2.81,2.81,0,0,0,2.71,1.77A4.36,4.36,0,0,0,195.45,53.71Z" transform="translate(0.06 0.43)"/><polygon class="cls-6" points="198.06 46.7 199.51 44.48 200.75 44.48 202.21 46.7 201.19 46.7 200.15 45.32 199.07 46.7 198.06 46.7"/><path class="cls-6" d="M201.69,55.55v-1h0a2.16,2.16,0,0,1-.75.76,3,3,0,0,1-1.68.47,2.07,2.07,0,0,1-1.55-.58,2.23,2.23,0,0,1-.57-1.63,2.11,2.11,0,0,1,1.37-1.92,5.29,5.29,0,0,1,2.4-.54,5.21,5.21,0,0,0,.78,0,12.73,12.73,0,0,0,0-1.51,1.29,1.29,0,0,0-1.45-1.11,1.41,1.41,0,0,0-1.61,1.27H197.3a2,2,0,0,1,.61-1.48,3.1,3.1,0,0,1,2.23-.73c1.76,0,2.64.85,2.64,2.54v5.55Zm0-3.58H201a3.78,3.78,0,0,0-1.6.33,1.45,1.45,0,0,0-1,1.34,1.17,1.17,0,0,0,.33.86,1.12,1.12,0,0,0,.78.29,1.92,1.92,0,0,0,1.06-.33,2,2,0,0,0,.78-.9A4,4,0,0,0,201.66,52Z" transform="translate(0.06 0.43)"/><path class="cls-6" d="M205.42,55.55V47.64h1.12v1.83h0q.57-2,2.22-2a1.76,1.76,0,0,1,2,1.81h0a3,3,0,0,1,.67-1.12,2,2,0,0,1,1.57-.69,1.83,1.83,0,0,1,1.52.73,2.77,2.77,0,0,1,.51,1.72v5.64h-1.14V51.17a8,8,0,0,0-.13-1.81,1,1,0,0,0-1-.77c-.6,0-1.1.44-1.48,1.32a5.88,5.88,0,0,0-.49,2.39v3.25h-1.13V51.17a7,7,0,0,0-.15-1.8,1,1,0,0,0-1-.78c-.6,0-1.1.44-1.49,1.32a5.88,5.88,0,0,0-.49,2.39v3.25Z" transform="translate(0.06 0.43)"/><path class="cls-6" d="M221.69,55.55v-1h0a2,2,0,0,1-.74.76,3,3,0,0,1-1.68.47,2.11,2.11,0,0,1-1.56-.58,2.23,2.23,0,0,1-.56-1.63,2.1,2.1,0,0,1,1.37-1.92,5.23,5.23,0,0,1,2.4-.54,5,5,0,0,0,.77,0,13.93,13.93,0,0,0,0-1.51,1.3,1.3,0,0,0-1.45-1.11,1.4,1.4,0,0,0-1.61,1.27h-1.26a2,2,0,0,1,.62-1.48,3.07,3.07,0,0,1,2.22-.73c1.77,0,2.65.85,2.65,2.54v5.55Zm0-3.58H221a3.83,3.83,0,0,0-1.61.33,1.45,1.45,0,0,0-1,1.34,1.18,1.18,0,0,0,.34.86,1.12,1.12,0,0,0,.77.29,2.1,2.1,0,0,0,1.85-1.23A4,4,0,0,0,221.65,52Z" transform="translate(0.06 0.43)"/><path class="cls-6" d="M225.43,55.55V47.64h1.12v1.54h0a2.66,2.66,0,0,1,2.65-1.72v1.21a2.3,2.3,0,0,0-2,1,4.41,4.41,0,0,0-.67,2.6v3.27Z" transform="translate(0.06 0.43)"/><path class="cls-6" d="M234.6,55.55v-1h0a2.13,2.13,0,0,1-.74.76,3,3,0,0,1-1.68.47,2.09,2.09,0,0,1-1.56-.58,2.23,2.23,0,0,1-.57-1.63,2.11,2.11,0,0,1,1.37-1.92,5.29,5.29,0,0,1,2.4-.54,5.21,5.21,0,0,0,.78,0,10.71,10.71,0,0,0,0-1.51,1.29,1.29,0,0,0-1.44-1.11,1.4,1.4,0,0,0-1.61,1.27h-1.26a2,2,0,0,1,.62-1.48,3.06,3.06,0,0,1,2.22-.73c1.76,0,2.65.85,2.65,2.54v5.55Zm0-3.58h-.66a3.8,3.8,0,0,0-1.61.33,1.45,1.45,0,0,0-1,1.34,1.17,1.17,0,0,0,.33.86,1.12,1.12,0,0,0,.78.29,2.1,2.1,0,0,0,1.84-1.23A4,4,0,0,0,234.57,52Z" transform="translate(0.06 0.43)"/><path class="cls-6" d="M246.85,55.55V54.2h0a2.22,2.22,0,0,1-.61,1,2,2,0,0,1-1.45.55c-1.8,0-2.7-1.35-2.7-4.07a6,6,0,0,1,.61-2.9,2.27,2.27,0,0,1,2.08-1.3,2,2,0,0,1,2.07,1.48h0V44.1H248V55.55Zm-3.5-3.67q0,2.91,1.65,2.91a1.59,1.59,0,0,0,1.41-1.07,4.65,4.65,0,0,0,.44-2.09,4.88,4.88,0,0,0-.46-2.27,1.51,1.51,0,0,0-1.36-1Q243.35,48.4,243.35,51.88Z" transform="translate(0.06 0.43)"/><path class="cls-6" d="M255.76,54.57v.93a6.06,6.06,0,0,1-1.82.23,3.56,3.56,0,0,1-2.83-1.11,4.73,4.73,0,0,1-1-3.29,4.57,4.57,0,0,1,.76-2.82,2.73,2.73,0,0,1,2.33-1,2.59,2.59,0,0,1,2.08.86,3.21,3.21,0,0,1,.68,2.14v.38h-4.55v.47a4.27,4.27,0,0,0,.55,2.19,2.45,2.45,0,0,0,2.26,1.29A7.59,7.59,0,0,0,255.76,54.57Zm-4.29-4.66h3.17a1.58,1.58,0,0,0-.32-.95,1.41,1.41,0,0,0-1.19-.56A1.59,1.59,0,0,0,251.47,49.91Z" transform="translate(0.06 0.43)"/><path class="cls-6" d="M269.25,53.71v1.34c-.57.24-.93.38-1.06.42a6.78,6.78,0,0,1-2,.26,3.74,3.74,0,0,1-3.5-2,8.34,8.34,0,0,1-.9-4.11,7.3,7.3,0,0,1,.93-4,3.75,3.75,0,0,1,3.39-1.75,3.6,3.6,0,0,1,2.64,1,3.17,3.17,0,0,1,.91,2.35h-1.46a2.26,2.26,0,0,0-.54-1.58,2,2,0,0,0-1.55-.65c-1.93,0-2.9,1.57-2.9,4.69a7.64,7.64,0,0,0,.59,3.21,2.81,2.81,0,0,0,2.71,1.77A4.38,4.38,0,0,0,269.25,53.71Z" transform="translate(0.06 0.43)"/><path class="cls-6" d="M273.88,55.73a2.83,2.83,0,0,1-2.5-1.2,5,5,0,0,1-.73-2.91,5.17,5.17,0,0,1,.73-2.95,3.19,3.19,0,0,1,5,0,5.09,5.09,0,0,1,.74,2.95,4.93,4.93,0,0,1-.74,2.91A2.84,2.84,0,0,1,273.88,55.73Zm-1.94-4.13c0,2.13.65,3.19,1.94,3.19s1.95-1.06,1.95-3.19-.65-3.2-1.95-3.2S271.94,49.47,271.94,51.6Z" transform="translate(0.06 0.43)"/><path class="cls-6" d="M279.18,55.55V47.64h1.13v1.83h0c.38-1.34,1.13-2,2.22-2a1.76,1.76,0,0,1,2,1.81h0a3,3,0,0,1,.67-1.12,2.06,2.06,0,0,1,1.57-.69,1.81,1.81,0,0,1,1.52.73,2.77,2.77,0,0,1,.51,1.72v5.64h-1.13V51.17a7.8,7.8,0,0,0-.14-1.81,1,1,0,0,0-1-.77c-.61,0-1.1.44-1.49,1.32a5.88,5.88,0,0,0-.49,2.39v3.25h-1.13V51.17a7,7,0,0,0-.15-1.8,1,1,0,0,0-1-.78c-.6,0-1.09.44-1.48,1.32a5.72,5.72,0,0,0-.5,2.39v3.25Z" transform="translate(0.06 0.43)"/><path class="cls-6" d="M296.64,54.57v.93a6,6,0,0,1-1.81.23A3.58,3.58,0,0,1,292,54.62a4.73,4.73,0,0,1-1-3.29,4.63,4.63,0,0,1,.76-2.82,2.75,2.75,0,0,1,2.34-1,2.59,2.59,0,0,1,2.07.86,3.16,3.16,0,0,1,.68,2.14v.38h-4.55v.47a4.37,4.37,0,0,0,.55,2.19,2.45,2.45,0,0,0,2.26,1.29A7.59,7.59,0,0,0,296.64,54.57Zm-4.29-4.66h3.18a1.59,1.59,0,0,0-.33-.95A1.38,1.38,0,0,0,294,48.4,1.61,1.61,0,0,0,292.35,49.91Zm1.15-3.65.7-2.22h1.46l-1.11,2.22Z" transform="translate(0.06 0.43)"/><path class="cls-6" d="M298.88,55.55V47.64H300v1.54h0a2.66,2.66,0,0,1,2.64-1.72v1.21a2.31,2.31,0,0,0-2,1,4.49,4.49,0,0,0-.66,2.6v3.27Z" transform="translate(0.06 0.43)"/><path class="cls-6" d="M309.26,54.62v.89a5.54,5.54,0,0,1-1.65.22,4,4,0,0,1-3-1.09,4.41,4.41,0,0,1-1.08-3.23q0-3.94,3.22-3.95a2.67,2.67,0,0,1,2.14.82,2.7,2.7,0,0,1,.56,1.77h-1.34c0-1.09-.48-1.65-1.42-1.65a1.59,1.59,0,0,0-1.46.94,3.78,3.78,0,0,0-.41,1.83,4.33,4.33,0,0,0,.59,2.37A2.78,2.78,0,0,0,308,54.79,4,4,0,0,0,309.26,54.62Z" transform="translate(0.06 0.43)"/><path class="cls-6" d="M311.28,55.55V47.64h1.13v7.91Zm-.18-10V44.1h1.5v1.48Z" transform="translate(0.06 0.43)"/><path class="cls-6" d="M317.85,55.73a2.81,2.81,0,0,1-2.49-1.2,5,5,0,0,1-.74-2.91,5.17,5.17,0,0,1,.74-2.95,2.84,2.84,0,0,1,2.49-1.21,2.89,2.89,0,0,1,2.51,1.21,5.17,5.17,0,0,1,.74,2.95,5,5,0,0,1-.74,2.91A2.85,2.85,0,0,1,317.85,55.73Zm-1.93-4.13c0,2.13.64,3.19,1.93,3.19s1.95-1.06,1.95-3.19-.65-3.2-1.95-3.2S315.92,49.47,315.92,51.6Z" transform="translate(0.06 0.43)"/><path class="cls-6" d="M332.6,54.57v.93a6,6,0,0,1-1.81.23A3.58,3.58,0,0,1,328,54.62a4.78,4.78,0,0,1-1-3.29,4.64,4.64,0,0,1,.75-2.82,2.75,2.75,0,0,1,2.34-1,2.56,2.56,0,0,1,2.07.86,3.16,3.16,0,0,1,.68,2.14v.38h-4.55v.47a4.27,4.27,0,0,0,.56,2.19A2.42,2.42,0,0,0,331,54.79,7.59,7.59,0,0,0,332.6,54.57Zm-4.28-4.66h3.17a1.52,1.52,0,0,0-.33-.95A1.38,1.38,0,0,0,330,48.4,1.59,1.59,0,0,0,328.32,49.91Z" transform="translate(0.06 0.43)"/><rect class="cls-8" x="339.37" y="44.53" width="1.3" height="11.45"/><path class="cls-6" d="M343.44,55.55V47.64h1.12v1.83h0a2.51,2.51,0,0,1,2.47-2,1.83,1.83,0,0,1,1.52.73,2.77,2.77,0,0,1,.51,1.72v5.64H348V51.17a7,7,0,0,0-.15-1.8,1,1,0,0,0-1-.78c-.68,0-1.25.44-1.68,1.32a5.17,5.17,0,0,0-.57,2.39v3.25Z" transform="translate(0.06 0.43)"/><path class="cls-6" d="M356,55.55V54.2h0a2.13,2.13,0,0,1-.61,1,2,2,0,0,1-1.45.55c-1.8,0-2.7-1.35-2.7-4.07a6,6,0,0,1,.61-2.9,2.27,2.27,0,0,1,2.08-1.3,2,2,0,0,1,2.07,1.48h0V44.1h1.12V55.55Zm-3.51-3.67c0,1.94.56,2.91,1.65,2.91a1.57,1.57,0,0,0,1.41-1.07,4.66,4.66,0,0,0,.45-2.09,5,5,0,0,0-.46-2.27,1.53,1.53,0,0,0-1.37-1C353,48.4,352.45,49.56,352.45,51.88Z" transform="translate(0.06 0.43)"/><path class="cls-6" d="M364.18,55.55V53.73h0a2.45,2.45,0,0,1-2.46,2,1.78,1.78,0,0,1-1.52-.73,2.73,2.73,0,0,1-.5-1.71V47.64h1.12V52a7.08,7.08,0,0,0,.15,1.8,1,1,0,0,0,1,.77c.68,0,1.24-.44,1.68-1.31a5.31,5.31,0,0,0,.55-2.39V47.64h1.12v7.91ZM362,46.26l.7-2.22h1.46l-1.11,2.22Z" transform="translate(0.06 0.43)"/><path class="cls-6" d="M369.91,50.68l.66.4a10.81,10.81,0,0,1,1.22.8,1.91,1.91,0,0,1,.63,1.47c0,1.59-1,2.38-2.95,2.38a7,7,0,0,1-2.15-.32v-1a6.7,6.7,0,0,0,2,.42q1.92,0,1.92-1.29a1.14,1.14,0,0,0-.53-.92c-.08-.06-.38-.22-.89-.5l-.71-.38A6.77,6.77,0,0,1,368,51a1.81,1.81,0,0,1-.62-1.4,1.84,1.84,0,0,1,.7-1.53,3.12,3.12,0,0,1,2-.57,9.33,9.33,0,0,1,1.86.26v1.05a5.34,5.34,0,0,0-1.85-.37,2.05,2.05,0,0,0-1.15.31.87.87,0,0,0-.44.72.9.9,0,0,0,.49.74Z" transform="translate(0.06 0.43)"/><path class="cls-6" d="M377.92,54.63v1a6.35,6.35,0,0,1-1,.08,2.45,2.45,0,0,1-1.7-.48,2.12,2.12,0,0,1-.5-1.56v-5.1h-1.29v-1h1.29V45.8l1.14-.71v2.55H378v1h-2.12v4.87a1.16,1.16,0,0,0,1.29,1.33A2.3,2.3,0,0,0,377.92,54.63Z" transform="translate(0.06 0.43)"/><path class="cls-6" d="M379.71,55.55V47.64h1.13v1.54h0a2.65,2.65,0,0,1,2.64-1.72v1.21a2.31,2.31,0,0,0-2,1,4.49,4.49,0,0,0-.66,2.6v3.27Z" transform="translate(0.06 0.43)"/><path class="cls-6" d="M385,55.55V47.64h1.13v7.91Zm-.17-10V44.1h1.49v1.48Z" transform="translate(0.06 0.43)"/><path class="cls-6" d="M392.89,55.55v-1h0a2,2,0,0,1-.74.76,3,3,0,0,1-1.68.47,2.07,2.07,0,0,1-1.56-.58,2.23,2.23,0,0,1-.57-1.63,2.11,2.11,0,0,1,1.37-1.92,5.29,5.29,0,0,1,2.4-.54,5.21,5.21,0,0,0,.78,0,10.71,10.71,0,0,0-.05-1.51,1.29,1.29,0,0,0-1.44-1.11c-1,0-1.5.43-1.61,1.27H388.5a2,2,0,0,1,.62-1.48,3.06,3.06,0,0,1,2.22-.73c1.76,0,2.65.85,2.65,2.54v5.55Zm0-3.58h-.66a3.83,3.83,0,0,0-1.61.33,1.45,1.45,0,0,0-1,1.34,1.17,1.17,0,0,0,.33.86,1.12,1.12,0,0,0,.78.29,2.1,2.1,0,0,0,1.84-1.23A4,4,0,0,0,392.86,52Z" transform="translate(0.06 0.43)"/><rect class="cls-8" x="188.41" y="29.01" width="1.94" height="11.46"/><path class="cls-6" d="M199,40V34.55c0-1.36-.63-2.61-2.14-2.61a2.45,2.45,0,0,0-2.34,1.67h0V32.13h-1.84V40h1.84V36.61c0-1.06.53-2.93,1.86-2.93a.75.75,0,0,1,.53.14c.32.3.28,1.31.28,1.7V40Z" transform="translate(0.06 0.43)"/><path class="cls-6" d="M207.3,40V28.58h-1.85v4.49h0a2.2,2.2,0,0,0-2-1.13c-2.19,0-2.7,2.4-2.7,4.14s.39,4.14,2.7,4.14a2.38,2.38,0,0,0,2-1.28h0V40Zm-1.85-4c0,.87-.21,2.71-1.39,2.71S202.7,37,202.7,36.08s0-2.71,1.36-2.71S205.45,35.17,205.45,36.08Z" transform="translate(0.06 0.43)"/><path class="cls-6" d="M215.87,40v-7.9H214v3.42c0,1.06-.53,2.94-1.86,2.94a.75.75,0,0,1-.53-.15c-.31-.3-.28-1.31-.28-1.7V32.13H209.5v5.48c0,1.36.64,2.61,2.15,2.61A2.5,2.5,0,0,0,214,38.56h0V40Z" transform="translate(0.06 0.43)"/><path class="cls-6" d="M222.7,37.84c0-2.26-3.47-2.79-3.47-3.83,0-.54.81-.73,1.23-.73a3.91,3.91,0,0,1,1.76.52V32.24a6.92,6.92,0,0,0-1.8-.3c-1.47,0-2.83.69-2.83,2.33,0,2.09,3.4,2.88,3.4,3.8,0,.64-.89.72-1.36.72a5,5,0,0,1-2-.48V39.9a6.77,6.77,0,0,0,2.1.32C221.26,40.22,222.7,39.6,222.7,37.84Z" transform="translate(0.06 0.43)"/><path class="cls-6" d="M229.19,33.41V32.13h-2.34v-3L225,30.25v1.88h-1.54v1.28H225V38c0,1.65.82,2.18,2.43,2.18a8.57,8.57,0,0,0,1.51-.14V38.79a4.06,4.06,0,0,1-.85.13c-1.14,0-1.24-.85-1.24-1.77V33.41Z" transform="translate(0.06 0.43)"/><path class="cls-6" d="M234.81,33.87V31.94a2.59,2.59,0,0,0-2.55,1.65h0V32.13h-1.84V40h1.84V36.56C232.22,34.71,232.92,33.87,234.81,33.87Z" transform="translate(0.06 0.43)"/><path class="cls-6" d="M238.18,30.4V28.58h-1.85V30.4Zm0,9.63v-7.9h-1.85V40Z" transform="translate(0.06 0.43)"/><path class="cls-6" d="M246.46,35.6v-.45c0-1.92-1-3.21-3-3.21-2.36,0-3.39,1.48-3.39,3.73,0,2.6,1.18,4.55,4,4.55a7.21,7.21,0,0,0,2.21-.32V38.62a4.61,4.61,0,0,1-1.51.3,3.16,3.16,0,0,1-3-3.32Zm-1.75-1.11h-2.88a1.46,1.46,0,0,1,1.49-1.36A1.27,1.27,0,0,1,244.71,34.49Z" transform="translate(0.06 0.43)"/><rect class="cls-8" x="247.91" y="35.29" width="6.18" height="1.79"/><path class="cls-6" d="M267.17,40v-7.9h-1.84v3.42c0,1.06-.53,2.94-1.86,2.94a.75.75,0,0,1-.53-.15c-.32-.3-.28-1.31-.28-1.7V32.13h-1.85v5.48c0,1.36.64,2.61,2.15,2.61a2.5,2.5,0,0,0,2.34-1.66h0V40Z" transform="translate(0.06 0.43)"/><path class="cls-6" d="M275.8,40V34.55c0-1.36-.63-2.61-2.14-2.61a2.45,2.45,0,0,0-2.34,1.67h0V32.13h-1.85V40h1.85V36.61c0-1.06.53-2.93,1.85-2.93a.76.76,0,0,1,.54.14c.31.3.28,1.31.28,1.7V40Z" transform="translate(0.06 0.43)"/><path class="cls-6" d="M284.13,40V28.58h-1.84v4.49h0a2.2,2.2,0,0,0-2-1.13c-2.19,0-2.71,2.4-2.71,4.14s.4,4.14,2.71,4.14a2.38,2.38,0,0,0,2-1.28h0V40Zm-1.84-4c0,.87-.21,2.71-1.39,2.71s-1.36-1.79-1.36-2.71,0-2.71,1.36-2.71S282.29,35.17,282.29,36.08Z" transform="translate(0.06 0.43)"/><polygon class="cls-6" points="299.42 40.47 299.42 29.01 297.48 29.01 297.48 33.76 293.36 33.76 293.36 29.01 291.42 29.01 291.42 40.47 293.36 40.47 293.36 35.24 297.48 35.24 297.48 40.47 299.42 40.47"/><path class="cls-6" d="M307.51,40V34.4c0-1.82-1.2-2.46-2.88-2.46s-3,.71-3,2.51h1.79a1.09,1.09,0,0,1,1.21-1.21c.92,0,1.12.67,1.12,1.45v.78c-1.79.05-4.42.3-4.42,2.67a2.39,2.39,0,0,0,4.38,1h0V40Zm-1.76-3.48c0,1-.42,2.37-1.65,2.37a.86.86,0,0,1-1-.94C303.13,36.78,304.87,36.55,305.75,36.55Z" transform="translate(0.06 0.43)"/><path class="cls-6" d="M316.07,40V34.55c0-1.36-.63-2.61-2.14-2.61a2.44,2.44,0,0,0-2.34,1.67h0V32.13h-1.84V40h1.84V36.61c0-1.06.54-2.93,1.87-2.93a.76.76,0,0,1,.53.14c.31.3.28,1.31.28,1.7V40Z" transform="translate(0.06 0.43)"/><path class="cls-6" d="M324.4,40V28.58h-1.84v4.49h0a2.2,2.2,0,0,0-2-1.13c-2.19,0-2.71,2.4-2.71,4.14s.4,4.14,2.71,4.14a2.4,2.4,0,0,0,2-1.28h0V40Zm-1.84-4c0,.87-.21,2.71-1.39,2.71S319.8,37,319.8,36.08s0-2.71,1.37-2.71S322.56,35.17,322.56,36.08Z" transform="translate(0.06 0.43)"/><path class="cls-6" d="M332.54,35.6v-.45c0-1.92-1-3.21-3-3.21-2.35,0-3.38,1.48-3.38,3.73,0,2.6,1.17,4.55,4,4.55a7.17,7.17,0,0,0,2.21-.32V38.62a4.56,4.56,0,0,1-1.51.3,3.16,3.16,0,0,1-3-3.32Zm-1.74-1.11h-2.89a1.47,1.47,0,0,1,1.49-1.36A1.28,1.28,0,0,1,330.8,34.49Z" transform="translate(0.06 0.43)"/><rect class="cls-8" x="334.46" y="29.01" width="1.85" height="11.46"/><path class="cls-6" d="M343.18,37.84c0-2.26-3.47-2.79-3.47-3.83,0-.54.81-.73,1.22-.73a3.84,3.84,0,0,1,1.76.52V32.24a6.78,6.78,0,0,0-1.79-.3c-1.48,0-2.84.69-2.84,2.33,0,2.09,3.4,2.88,3.4,3.8,0,.64-.89.72-1.35.72a5,5,0,0,1-2-.48V39.9a6.71,6.71,0,0,0,2.09.32C341.74,40.22,343.18,39.6,343.18,37.84Z" transform="translate(0.06 0.43)"/><polygon class="cls-6" points="351.66 40.47 348.47 35.99 351.39 32.56 349.18 32.56 346.62 35.59 346.62 29.01 344.78 29.01 344.78 40.47 346.62 40.47 346.62 36.48 346.66 36.48 349.45 40.47 351.66 40.47"/><path class="cls-6" d="M358.51,40V34.4c0-1.82-1.2-2.46-2.87-2.46s-3,.71-3,2.51h1.8a1.09,1.09,0,0,1,1.21-1.21c.91,0,1.11.67,1.11,1.45v.78c-1.79.05-4.41.3-4.41,2.67a2.39,2.39,0,0,0,4.38,1h0V40Zm-1.76-3.48c0,1-.41,2.37-1.64,2.37a.87.87,0,0,1-1-.94C354.12,36.78,355.87,36.55,356.75,36.55Z" transform="translate(0.06 0.43)"/><path class="cls-6" d="M371.06,40V34.55c0-1.36-.63-2.61-2.14-2.61a2.45,2.45,0,0,0-2.23,1.58h0a1.91,1.91,0,0,0-2-1.58,2.2,2.2,0,0,0-2.08,1.4h0V32.13h-1.84V40h1.84V36.61c0-.91.4-2.93,1.59-2.93a.78.78,0,0,1,.54.14c.31.3.28,1.31.28,1.7V40h1.84V36.61c0-.91.4-2.93,1.59-2.93a.74.74,0,0,1,.53.14c.32.3.29,1.31.29,1.7V40Z" transform="translate(0.06 0.43)"/><path class="cls-6" d="M383.66,40V34.55c0-1.36-.63-2.61-2.14-2.61a2.44,2.44,0,0,0-2.23,1.58h0a1.91,1.91,0,0,0-2-1.58,2.18,2.18,0,0,0-2.08,1.4h0V32.13h-1.85V40h1.85V36.61c0-.91.4-2.93,1.59-2.93a.74.74,0,0,1,.53.14c.32.3.29,1.31.29,1.7V40h1.84V36.61c0-.91.4-2.93,1.59-2.93a.74.74,0,0,1,.53.14c.32.3.29,1.31.29,1.7V40Z" transform="translate(0.06 0.43)"/><path class="cls-6" d="M391.82,35.6v-.45c0-1.92-1-3.21-3-3.21-2.36,0-3.39,1.48-3.39,3.73,0,2.6,1.18,4.55,4,4.55a7.15,7.15,0,0,0,2.2-.32V38.62a4.56,4.56,0,0,1-1.51.3,3.16,3.16,0,0,1-3-3.32Zm-1.74-1.11h-2.89a1.47,1.47,0,0,1,1.49-1.36A1.28,1.28,0,0,1,390.08,34.49Z" transform="translate(0.06 0.43)"/><path class="cls-6" d="M398,33.87V31.94a2.61,2.61,0,0,0-2.56,1.65h0V32.13h-1.84V40h1.84V36.56C395.41,34.71,396.11,33.87,398,33.87Z" transform="translate(0.06 0.43)"/><path class="cls-6" d="M196.28,18.76c0-3.74-1-5.7-5-5.7h-2.84V24.54h2.84a7.19,7.19,0,0,0,2.22-.27C195.86,23.5,196.28,21,196.28,18.76Zm-2.14,0c0,1.25,0,3.3-1.26,4a3.29,3.29,0,0,1-1.63.35h-.9V14.44h.9C194,14.44,194.14,16.57,194.14,18.76Z" transform="translate(0.06 0.43)"/><path class="cls-6" d="M204.06,20.09v-.45c0-1.93-1-3.21-3-3.21-2.36,0-3.39,1.48-3.39,3.72,0,2.61,1.18,4.55,4,4.55a7.24,7.24,0,0,0,2.21-.31V23.11a4.93,4.93,0,0,1-1.52.29,3.15,3.15,0,0,1-3-3.31ZM202.32,19h-2.89a1.48,1.48,0,0,1,1.49-1.36A1.29,1.29,0,0,1,202.32,19Z" transform="translate(0.06 0.43)"/><path class="cls-6" d="M212.18,24.52v-7.9h-1.84V20c0,1.07-.53,2.95-1.86,2.95a.72.72,0,0,1-.53-.16c-.32-.29-.28-1.31-.28-1.69V16.62h-1.85v5.47c0,1.37.63,2.61,2.14,2.61A2.49,2.49,0,0,0,210.31,23h0v1.48Z" transform="translate(0.06 0.43)"/><path class="cls-6" d="M219.37,17.89V16.62H217v-3l-1.85,1.11v1.88h-1.54v1.27h1.54v4.64c0,1.64.82,2.17,2.43,2.17a9.62,9.62,0,0,0,1.51-.13v-1.3a3.57,3.57,0,0,1-.85.13c-1.14,0-1.24-.84-1.24-1.77V17.89Z" transform="translate(0.06 0.43)"/><path class="cls-6" d="M225.16,22.33c0-2.26-3.47-2.8-3.47-3.84,0-.53.81-.73,1.22-.73a4,4,0,0,1,1.77.53V16.73a6.52,6.52,0,0,0-1.8-.3c-1.47,0-2.84.68-2.84,2.33,0,2.09,3.41,2.87,3.41,3.8,0,.63-.9.71-1.36.71a5,5,0,0,1-2-.48v1.6a7,7,0,0,0,2.09.31C223.71,24.7,225.16,24.09,225.16,22.33Z" transform="translate(0.06 0.43)"/><path class="cls-6" d="M232.84,19.32c0-1.94-1.08-2.89-3-2.89-2.37,0-3.61,1.5-3.61,3.79,0,2.76,1.4,4.48,4.23,4.48a7.9,7.9,0,0,0,2.31-.36V23.21a4.28,4.28,0,0,1-1.33.19,3.19,3.19,0,0,1-3.26-3.52c0-.94.35-2.15,1.51-2.15,1,0,1.2.78,1.2,1.59Z" transform="translate(0.06 0.43)"/><path class="cls-6" d="M240.46,24.52V19c0-1.36-.64-2.61-2.14-2.61A2.46,2.46,0,0,0,236,18.09h0v-5H234.1V24.52h1.84V21.1c0-1.07.53-2.94,1.86-2.94a.75.75,0,0,1,.53.15c.32.3.28,1.31.28,1.69v4.52Z" transform="translate(0.06 0.43)"/><rect class="cls-8" x="242.39" y="19.77" width="6.18" height="1.8"/><path class="cls-6" d="M257.79,21.35a2.7,2.7,0,0,0-2.48-2.93v0a2.56,2.56,0,0,0,1.91-2.64c0-2-1.49-2.69-3.25-2.69h-3.52V24.52H254C256.16,24.52,257.79,23.84,257.79,21.35Zm-2.55-5.27c0,1.43-.83,1.68-2.07,1.68h-.78V14.44h.78C254.4,14.44,255.24,14.66,255.24,16.08Zm.57,5.1c0,1.64-1.26,2-2.64,2h-.78v-4h.78C254.58,19.14,255.81,19.53,255.81,21.18Z" transform="translate(0.06 0.43)"/><path class="cls-6" d="M264,18.36V16.43a2.61,2.61,0,0,0-2.56,1.64h0V16.62h-1.85v7.9h1.85V21.05C261.44,19.19,262.13,18.36,264,18.36Z" transform="translate(0.06 0.43)"/><path class="cls-6" d="M271.24,24.52V18.89c0-1.83-1.19-2.46-2.87-2.46s-3,.7-3,2.51h1.8a1.08,1.08,0,0,1,1.21-1.21c.91,0,1.11.66,1.11,1.44V20c-1.79.05-4.42.3-4.42,2.68a2.4,2.4,0,0,0,4.39,1h0v.92ZM269.48,21c0,1-.41,2.37-1.64,2.37a.87.87,0,0,1-1-.94C266.86,21.26,268.6,21,269.48,21Z" transform="translate(0.06 0.43)"/><path class="cls-6" d="M278,22.33c0-2.26-3.47-2.8-3.47-3.84,0-.53.82-.73,1.23-.73a3.88,3.88,0,0,1,1.76.53V16.73a6.45,6.45,0,0,0-1.79-.3c-1.48,0-2.84.68-2.84,2.33,0,2.09,3.4,2.87,3.4,3.8,0,.63-.89.71-1.36.71a5,5,0,0,1-2-.48v1.6a7.07,7.07,0,0,0,2.1.31C276.57,24.7,278,24.09,278,22.33Z" transform="translate(0.06 0.43)"/><path class="cls-6" d="M281.51,14.89V13.06h-1.84v1.83Zm0,9.63v-7.9h-1.84v7.9Z" transform="translate(0.06 0.43)"/><rect class="cls-8" x="284.03" y="13.5" width="1.84" height="11.46"/><path class="cls-6" d="M290.1,14.89V13.06h-1.84v1.83Zm0,9.63v-7.9h-1.84v7.9Z" transform="translate(0.06 0.43)"/><path class="cls-6" d="M298.25,24.52V18.89c0-1.83-1.2-2.46-2.87-2.46s-3,.7-3,2.51h1.8a1.08,1.08,0,0,1,1.21-1.21c.91,0,1.11.66,1.11,1.44V20c-1.79.05-4.42.3-4.42,2.68a2.4,2.4,0,0,0,4.39,1h0v.92ZM296.49,21c0,1-.42,2.37-1.64,2.37a.86.86,0,0,1-1-.94C293.87,21.26,295.61,21,296.49,21Z" transform="translate(0.06 0.43)"/><path class="cls-6" d="M306.82,24.52V19c0-1.36-.64-2.61-2.15-2.61a2.45,2.45,0,0,0-2.34,1.66h0V16.62h-1.85v7.9h1.85V21.1c0-1.07.53-2.94,1.86-2.94a.75.75,0,0,1,.53.15c.31.3.28,1.31.28,1.69v4.52Z" transform="translate(0.06 0.43)"/><path class="cls-6" d="M311,14.89V13.06h-1.84v1.83Zm0,9.63v-7.9h-1.84v7.9Z" transform="translate(0.06 0.43)"/><path class="cls-6" d="M317.93,22.33c0-2.26-3.47-2.8-3.47-3.84,0-.53.81-.73,1.23-.73a3.92,3.92,0,0,1,1.76.53V16.73a6.52,6.52,0,0,0-1.79-.3c-1.48,0-2.85.68-2.85,2.33,0,2.09,3.41,2.87,3.41,3.8,0,.63-.9.71-1.36.71a5,5,0,0,1-2-.48v1.6a7.05,7.05,0,0,0,2.09.31C316.48,24.7,317.93,24.09,317.93,22.33Z" transform="translate(0.06 0.43)"/><path class="cls-6" d="M325.61,19.32c0-1.94-1.07-2.89-3-2.89-2.38,0-3.62,1.5-3.62,3.79,0,2.76,1.41,4.48,4.23,4.48a7.9,7.9,0,0,0,2.31-.36V23.21a4.28,4.28,0,0,1-1.33.19c-2.09,0-3.25-1.52-3.25-3.52,0-.94.34-2.15,1.51-2.15,1,0,1.19.78,1.19,1.59Z" transform="translate(0.06 0.43)"/><path class="cls-6" d="M333.23,24.52V19c0-1.36-.63-2.61-2.14-2.61a2.44,2.44,0,0,0-2.34,1.66h0v-5h-1.84V24.52h1.84V21.1c0-1.07.53-2.94,1.86-2.94a.75.75,0,0,1,.53.15c.32.3.28,1.31.28,1.69v4.52Z" transform="translate(0.06 0.43)"/><path class="cls-6" d="M341.39,20.09v-.45c0-1.93-1-3.21-3-3.21-2.36,0-3.39,1.48-3.39,3.72,0,2.61,1.18,4.55,4,4.55a7.24,7.24,0,0,0,2.21-.31V23.11a4.93,4.93,0,0,1-1.52.29,3.15,3.15,0,0,1-3-3.31ZM339.65,19h-2.89a1.49,1.49,0,0,1,1.5-1.36A1.28,1.28,0,0,1,339.65,19Z" transform="translate(0.06 0.43)"/></svg>