<svg id="Ebene_1" data-name="Ebene 1" xmlns="http://www.w3.org/2000/svg" viewBox="0 0 754.96 260.27"><defs><style>.cls-1{fill:gray;}</style></defs><title>DWNRW-WortBildMarke-OutoftheBox-RGB-181025-fuerWebseite</title><path class="cls-1" d="M515.21,194.28h21.37V214H515.21Z" transform="translate(-22.69 -19.86)"/><path class="cls-1" d="M542.56,154h20.18l22.94,26.45V154h21.37V214H587.89l-23.95-27.66V214H542.56Z" transform="translate(-22.69 -19.86)"/><path class="cls-1" d="M614.41,154h31.51c11.42,0,18.7,2.65,23.21,6.85,3.87,3.59,5.9,8,5.9,14.21v.17c0,8.73-4.88,14.81-12.71,18.32l15,20.38H652.74l-12.16-17.12H636V214H614.41Zm30.86,28.51c5.16,0,8.29-2.14,8.29-5.82v-.18c0-3.85-3.22-5.73-8.19-5.73H636v11.73Z" transform="translate(-22.69 -19.86)"/><path class="cls-1" d="M675.21,154h22.57l9.12,28.76,10.41-28.93h18.61l10.41,28.93L755.45,154h22.2l-21.1,60.36H737.76l-11.33-29.8L715.1,214.4H696.3Z" transform="translate(-22.69 -19.86)"/><path d="M95,116v-.17c0-17.33,15.33-31.15,35.16-31.15s35,13.65,35,31v.17c0,17.32-15.33,31.15-35.16,31.15S95,133.36,95,116Zm48.47,0v-.17A13.21,13.21,0,0,0,130,102.38,13,13,0,0,0,116.7,115.7v.17a13.21,13.21,0,0,0,13.5,13.48A13,13,0,0,0,143.51,116Z" transform="translate(-22.69 -19.86)"/><path d="M170.5,118.94V86h21.86v32.68c0,7.43,4.13,10.58,9.91,10.58s9.92-2.9,9.92-10.15V86H234v32.51c0,20.4-12.76,28.42-31.95,28.42S170.5,138.74,170.5,118.94Z" transform="translate(-22.69 -19.86)"/><path d="M257.26,102.9H238.35V86h59.31v16.9H278.75v42.84H257.26Z" transform="translate(-22.69 -19.86)"/><path d="M324.38,116v-.17c0-17.33,15.33-31.15,35.16-31.15s35,13.65,35,31v.17c0,17.32-15.33,31.15-35.16,31.15S324.38,133.36,324.38,116Zm48.47,0v-.17a13.21,13.21,0,0,0-13.49-13.49A13,13,0,0,0,346,115.7v.17a13.21,13.21,0,0,0,13.5,13.48A13,13,0,0,0,372.85,116Z" transform="translate(-22.69 -19.86)"/><path d="M400.39,86H454.2v17.07H421.88v7.59h30v15.53h-30v19.55H400.39Z" transform="translate(-22.69 -19.86)"/><path d="M112.94,171.16H94v-16.9h59.31v16.9H134.42V214H112.94Z" transform="translate(-22.69 -19.86)"/><path d="M158.2,154.26h21.49v21.08h19.64V154.26h21.49V214H199.33V192.58H179.69V214H158.2Z" transform="translate(-22.69 -19.86)"/><path d="M228.16,154.26H283v16.39H249.28v6.06h31.4v14.42h-31.4v6.48h34.15V214H228.16Z" transform="translate(-22.69 -19.86)"/><path d="M312.53,154.26h36c8.91,0,14.51,1.88,18.27,5.38a12.3,12.3,0,0,1,3.95,9.3v.17c0,7.09-4.59,11.44-11.47,13.66,8.26,2.22,13.58,6.31,13.58,14.5v.17c0,9.56-8.44,16.56-24.69,16.56H312.53Zm37.1,19.2c0-2.64-2.3-4.09-6.89-4.09h-9.27v8.36h9.36c4.59,0,6.8-1.45,6.8-4.09ZM344.3,190H333.47v8.87h10.74c4.68,0,7.07-1.79,7.07-4.35v-.17C351.28,191.81,349,190,344.3,190Z" transform="translate(-22.69 -19.86)"/><path d="M376.06,184.3v-.17c0-17.32,15.34-31.15,35.17-31.15s35,13.66,35,31v.17c0,17.32-15.33,31.15-35.16,31.15S376.06,201.63,376.06,184.3Zm48.48,0v-.17a13.2,13.2,0,0,0-13.49-13.48A13,13,0,0,0,397.73,184v.17a13.21,13.21,0,0,0,13.5,13.48A13,13,0,0,0,424.54,184.3Z" transform="translate(-22.69 -19.86)"/><path d="M510.48,154.26l-20.84,29.1L511.4,214H487l-10.19-15.53L466.5,214h-24l21.76-30.38-20.84-29.36h24.42l9.28,14.25,9.36-14.25Z" transform="translate(-22.69 -19.86)"/><polygon points="513.89 260.27 513.89 240.41 21.37 240.41 21.37 19.86 513.89 19.86 513.89 0 21.37 0 0 0 0 19.86 0 240.41 0 260.27 513.89 260.27"/></svg>