<?xml version="1.0" encoding="utf-8"?>
<!-- Generator: Adobe Illustrator 25.1.0, SVG Export Plug-In . SVG Version: 6.00 Build 0)  -->
<svg version="1.1" id="Ebene_1" xmlns="http://www.w3.org/2000/svg" xmlns:xlink="http://www.w3.org/1999/xlink" x="0px" y="0px"
	 viewBox="0 0 569.27 84.55" style="enable-background:new 0 0 569.27 84.55;" xml:space="preserve">
<style type="text/css">
	.st0{fill:#51AF47;}
	.st1{fill:#FFFFFF;}
	.st2{fill:#52AF49;}
	.st3{fill:#06B4E7;}
	.st4{fill:#FEEB17;}
	.st5{fill:#EB5A33;}
</style>
<g>
	<path class="st0" d="M239.07,38.1h-4.73l-0.83-4.41c-1.34-0.51-2.75-0.77-4.53-0.77c-3.19,0-4.53,1.79-4.53,3.71
		c0,1.72,0.77,2.81,3.07,3.58l4.85,1.47c5.05,1.6,7.73,4.09,7.73,8.56s-3.32,8.68-11.69,8.68c-4.02,0-7.47-0.77-10.6-2.04
		l-0.57-8.43h4.72l1.34,5.04c1.28,0.64,3.07,1.02,5.11,1.02c2.94,0,4.98-1.28,4.98-3.64c0-1.85-1.15-2.94-3.38-3.7l-5.11-1.6
		c-4.47-1.41-7.09-4.03-7.09-8.3c0-4.15,2.75-8.81,11.11-8.81c3.58,0,7.6,0.77,10.15,1.79V38.1z"/>
	<path class="st0" d="M267.42,50.81l1.98,4.73c-2.81,1.91-6.9,3.38-11.05,3.38c-9.83,0-13.79-6.38-13.79-15.26
		c0-8.37,4.28-15.2,13.16-15.2c8.49,0,11.94,6.13,11.94,12.39c0,1.53-0.19,3.58-0.51,4.79h-18.2c0.07,4.92,2.36,7.92,7.47,7.92
		C261.68,53.56,264.74,52.54,267.42,50.81 M263.72,40.98c0.06-0.38,0.06-0.77,0.06-1.02c0-4.09-2.49-6.45-6.13-6.45
		c-4.73,0-6.39,3.32-6.64,7.47H263.72z"/>
	<path class="st0" d="M274.13,52.98h4.02V34.34h-3.89V29.1h9.2v3.32c1.66-1.79,4.73-3.96,10.03-3.96c6.96,0,9.77,3.9,9.77,11.3
		v13.22h3.96v5.24h-14.43v-5.24h4.53V40.34c0-3.89-0.96-6.26-5.88-6.26c-3,0-6,1.47-7.41,2.62v16.28h4.54v5.24h-14.43V52.98z"/>
	<path class="st0" d="M332.31,38.1h-4.73l-0.83-4.41c-1.34-0.51-2.75-0.77-4.53-0.77c-3.19,0-4.53,1.79-4.53,3.71
		c0,1.72,0.77,2.81,3.06,3.58l4.85,1.47c5.05,1.6,7.73,4.09,7.73,8.56s-3.32,8.68-11.69,8.68c-4.02,0-7.47-0.77-10.6-2.04
		l-0.58-8.43h4.73l1.34,5.04c1.28,0.64,3.07,1.02,5.11,1.02c2.94,0,4.98-1.28,4.98-3.64c0-1.85-1.15-2.94-3.38-3.7l-5.11-1.6
		c-4.47-1.41-7.09-4.03-7.09-8.3c0-4.15,2.75-8.81,11.11-8.81c3.58,0,7.6,0.77,10.16,1.79V38.1z"/>
	<path class="st0" d="M360.67,50.81l1.98,4.73c-2.81,1.91-6.9,3.38-11.05,3.38c-9.83,0-13.79-6.38-13.79-15.26
		c0-8.37,4.28-15.2,13.16-15.2c8.49,0,11.94,6.13,11.94,12.39c0,1.53-0.19,3.58-0.51,4.79h-18.2c0.07,4.92,2.36,7.92,7.47,7.92
		C354.92,53.56,357.98,52.54,360.67,50.81 M356.96,40.98c0.06-0.38,0.06-0.77,0.06-1.02c0-4.09-2.49-6.45-6.13-6.45
		c-4.73,0-6.39,3.32-6.64,7.47H356.96z"/>
	<path class="st0" d="M367.75,52.92h4.6V20.35h-4.6v-5.3h18.59c8.81,0,12.71,4.41,12.71,11.24c0,4.79-2.68,8.36-6.2,9.19
		c4.15,0.83,8.24,4.85,8.24,10.6c0,9.2-6.51,12.14-14.75,12.14h-18.59V52.92z M385.13,33.32c5.05,0,7.41-2.43,7.41-6.71
		c0-3.77-1.85-6.26-7.22-6.26h-6.71v12.96H385.13z M385.89,52.92c6.39,0,8.75-2.68,8.75-7.09c0-4.02-2.04-7.28-8.81-7.28h-7.22
		v14.37H385.89z"/>
	<path class="st0" d="M432.26,43.59c0,9.01-3.64,15.33-13.73,15.33c-9.64,0-13.41-6.32-13.41-15.2c0-9,3.64-15.26,13.67-15.26
		C428.62,28.46,432.26,34.72,432.26,43.59 M425.94,43.72c0-6.45-1.73-9.71-7.28-9.71c-5.43,0-7.28,3.26-7.28,9.58
		c0,6.45,1.85,9.77,7.34,9.77C424.28,53.37,425.94,49.98,425.94,43.72"/>
	<polygon class="st0" points="445.54,52.98 450.78,52.98 450.78,58.22 436.22,58.22 436.22,52.98 439.92,52.98 447.78,43.21 
		440.94,34.34 436.41,34.34 436.41,29.1 448.48,29.1 448.48,34.08 453.59,40.79 458.44,34.34 453.27,34.34 453.27,29.1 467.77,29.1 
		467.77,34.34 463.81,34.34 456.53,43.59 464.26,52.98 468.41,52.98 468.41,58.22 456.46,58.22 456.46,53.24 450.84,45.89 	"/>
	
		<rect x="497.09" y="12.4" transform="matrix(0.7071 -0.7071 0.7071 0.7071 124.4622 385.0277)" class="st1" width="59.81" height="59.76"/>
	<path class="st2" d="M543.69,64.36c-4.34-4.11-10.18-6.65-16.62-6.65c-6.49,0-12.38,2.57-16.72,6.71l16.63,16.63L543.69,64.36z"/>
	<path class="st3" d="M525.42,27.74c0.24,1.51-0.78,2.92-2.28,3.15c-1.5,0.24-2.91-0.78-3.15-2.27c-0.24-1.51,0.78-2.92,2.28-3.15
		C523.78,25.22,525.19,26.24,525.42,27.74"/>
	<path class="st1" d="M522.7,32.89c-0.99,0-1.94-0.31-2.76-0.9c-1.02-0.74-1.69-1.83-1.89-3.07c-0.2-1.24,0.1-2.49,0.84-3.52
		c0.74-1.02,1.83-1.69,3.08-1.89c1.23-0.2,2.48,0.09,3.5,0.83c1.02,0.74,1.7,1.83,1.89,3.08c0.2,1.25-0.1,2.5-0.83,3.52
		c-0.74,1.02-1.83,1.69-3.08,1.89C523.2,32.87,522.95,32.89,522.7,32.89 M522.72,27.4l-0.13,0.01c-0.29,0.05-0.45,0.21-0.52,0.31
		c-0.07,0.1-0.18,0.3-0.14,0.58c0.04,0.28,0.21,0.44,0.31,0.51c0.1,0.07,0.31,0.19,0.58,0.14c0.28-0.04,0.44-0.21,0.51-0.31
		s0.18-0.3,0.14-0.59l0-0.01c-0.04-0.27-0.21-0.43-0.31-0.5C523.09,27.48,522.93,27.4,522.72,27.4"/>
	<path class="st3" d="M525.42,39.32c0.25,1.5-0.78,2.91-2.28,3.15c-1.5,0.25-2.91-0.78-3.15-2.27c-0.24-1.5,0.78-2.91,2.27-3.15
		C523.78,36.79,525.19,37.82,525.42,39.32"/>
	<path class="st1" d="M522.69,44.47c-0.97,0-1.92-0.3-2.73-0.89c-1.03-0.74-1.7-1.83-1.9-3.08c-0.2-1.24,0.09-2.49,0.83-3.52
		c0.74-1.02,1.83-1.69,3.07-1.89c1.24-0.2,2.49,0.09,3.51,0.83c1.02,0.74,1.69,1.83,1.89,3.07c0.2,1.24-0.09,2.49-0.83,3.51
		c-0.74,1.03-1.84,1.7-3.08,1.9C523.2,44.45,522.94,44.47,522.69,44.47 M522.72,38.97l-0.13,0.01c-0.28,0.04-0.44,0.21-0.51,0.31
		c-0.07,0.1-0.18,0.3-0.14,0.58c0.05,0.28,0.22,0.44,0.32,0.51c0.12,0.08,0.31,0.18,0.57,0.13c0.29-0.05,0.45-0.22,0.52-0.32
		c0.07-0.1,0.18-0.3,0.13-0.57l0-0.01c-0.04-0.28-0.21-0.43-0.31-0.51C523.09,39.06,522.93,38.97,522.72,38.97"/>
	<path class="st3" d="M534.36,49.12c0.24,1.5-0.78,2.91-2.28,3.15c-1.5,0.24-2.91-0.78-3.15-2.28c-0.24-1.5,0.78-2.91,2.28-3.15
		C532.71,46.59,534.11,47.62,534.36,49.12"/>
	<path class="st1" d="M531.66,54.27c-2.28,0-4.3-1.65-4.67-3.97c-0.2-1.24,0.09-2.49,0.83-3.51c0.74-1.02,1.83-1.69,3.08-1.9
		c2.55-0.41,4.98,1.33,5.41,3.9l0,0.01c0.41,2.56-1.35,4.99-3.91,5.4C532.15,54.25,531.9,54.27,531.66,54.27 M531.65,48.77
		l-0.12,0.01c-0.29,0.05-0.45,0.22-0.52,0.32c-0.09,0.12-0.18,0.31-0.13,0.58c0.07,0.43,0.47,0.72,0.9,0.65
		c0.42-0.07,0.71-0.47,0.64-0.89C532.35,49.04,532.02,48.77,531.65,48.77"/>
	<path class="st3" d="M537.11,33.82c0.24,1.49-0.78,2.9-2.28,3.15c-1.5,0.25-2.91-0.78-3.15-2.28c-0.24-1.5,0.78-2.91,2.28-3.15
		C535.46,31.29,536.86,32.32,537.11,33.82"/>
	<path class="st1" d="M534.38,38.97c-0.97,0-1.92-0.3-2.73-0.89c-1.03-0.74-1.7-1.83-1.91-3.08c-0.2-1.24,0.09-2.49,0.83-3.51
		c0.74-1.02,1.83-1.7,3.08-1.9c2.56-0.41,4.99,1.34,5.41,3.91v0c0.2,1.24-0.1,2.49-0.83,3.51c-0.74,1.02-1.83,1.69-3.08,1.89
		C534.89,38.95,534.63,38.97,534.38,38.97 M534.39,33.47l-0.12,0.01c-0.28,0.04-0.44,0.22-0.51,0.32c-0.07,0.1-0.18,0.3-0.14,0.57
		c0.05,0.29,0.22,0.45,0.32,0.52c0.12,0.08,0.31,0.18,0.57,0.13c0.29-0.05,0.45-0.22,0.52-0.32c0.07-0.1,0.18-0.3,0.14-0.57
		C535.1,33.75,534.77,33.47,534.39,33.47"/>
	<path class="st4" d="M513.13,17.38l13.86-13.86l13.98,13.98c-3.89,2.82-8.68,4.49-13.85,4.49
		C521.88,21.99,517.04,20.26,513.13,17.38"/>
	<path class="st1" d="M527.12,23.96c-5.48,0-10.72-1.73-15.15-5l-1.84-1.36l16.87-16.87L544,17.74l-1.87,1.35
		C537.73,22.27,532.54,23.96,527.12,23.96 M516.23,17.06c3.3,1.94,7.02,2.96,10.89,2.96c3.81,0,7.48-0.98,10.74-2.85L526.99,6.3
		L516.23,17.06z"/>
	<polygon class="st3" points="551.99,56.12 546.96,51.1 552.16,45.9 541.76,45.9 538.15,42.29 541.65,38.79 552.26,38.79 
		546.96,33.48 551.99,28.46 565.76,42.23 	"/>
	<path class="st1" d="M551.99,58.91l-7.81-7.81l3.23-3.23h-6.47l-5.57-5.58l5.47-5.47h6.68l-3.34-3.34l7.82-7.8l16.55,16.55
		L551.99,58.91z M549.75,51.1l2.23,2.23l11-11.1l-11-10.99l-2.24,2.24l7.26,7.27h-14.54l-1.54,1.54l1.64,1.64h14.34L549.75,51.1z"/>
	<path class="st3" d="M525.42,27.74c0.24,1.51-0.78,2.92-2.28,3.15c-1.5,0.24-2.91-0.78-3.15-2.27c-0.24-1.51,0.78-2.92,2.28-3.15
		C523.78,25.22,525.19,26.24,525.42,27.74"/>
	<path class="st3" d="M525.42,39.32c0.25,1.5-0.78,2.91-2.28,3.15c-1.5,0.25-2.91-0.78-3.15-2.27c-0.24-1.5,0.78-2.91,2.27-3.15
		C523.78,36.79,525.19,37.82,525.42,39.32"/>
	<path class="st3" d="M534.36,49.12c0.24,1.5-0.78,2.91-2.28,3.15c-1.5,0.24-2.91-0.78-3.15-2.28c-0.24-1.5,0.78-2.91,2.28-3.15
		C532.71,46.59,534.11,47.62,534.36,49.12"/>
	<path class="st3" d="M537.11,33.82c0.24,1.49-0.78,2.9-2.28,3.15c-1.5,0.25-2.91-0.78-3.15-2.28c-0.24-1.5,0.78-2.91,2.28-3.15
		C535.46,31.29,536.86,32.32,537.11,33.82"/>
	<path class="st4" d="M513.13,17.38l13.86-13.86l13.98,13.98c-3.89,2.82-8.68,4.49-13.85,4.49
		C521.88,21.99,517.04,20.26,513.13,17.38"/>
	<polygon class="st3" points="551.99,56.12 546.96,51.1 552.16,45.9 541.76,45.9 538.15,42.29 541.65,38.79 552.26,38.79 
		546.96,33.48 551.99,28.46 565.76,42.23 	"/>
	<path class="st3" d="M492.58,37.93L492.58,37.93c1.17,1.17,1.81,2.72,1.8,4.36c0,1.7-0.69,3.25-1.81,4.36l3.43,3.43
		c2-2,3.23-4.75,3.23-7.8c0-2.94-1.14-5.72-3.23-7.8L492.58,37.93z"/>
	<path class="st3" d="M498.66,31.85c2.79,2.79,4.32,6.5,4.32,10.44c0,3.95-1.54,7.66-4.33,10.45l3.44,3.43
		c3.71-3.71,5.75-8.64,5.75-13.89c0-5.24-2.04-10.17-5.75-13.88L498.66,31.85z"/>
	<path class="st3" d="M504.74,25.76L504.74,25.76c4.42,4.42,6.85,10.29,6.85,16.53c0,6.45-2.62,12.29-6.86,16.52l3.43,3.43
		c5.11-5.11,8.28-12.17,8.28-19.96c0-7.54-2.94-14.63-8.27-19.96l0,0L504.74,25.76z"/>
	<path class="st3" d="M488.21,42.3l2.18,2.18c0.12-0.12,0.23-0.24,0.33-0.37c0.9-1.25,0.73-2.94-0.33-3.99L488.21,42.3z"/>
	<path class="st5" d="M0.3,58.26v-4.03h4.04V20.5H0v-4.15h8.85v17.16c1.01-0.93,2.35-1.71,4.04-2.35c1.68-0.64,3.47-0.96,5.36-0.96
		c3.33,0,5.71,0.85,7.14,2.56c1.42,1.71,2.14,4.37,2.14,7.98v13.49h3.98v4.03H18.31v-4.03H23V41.1c0-2.25-0.39-3.9-1.18-4.97
		c-0.78-1.06-2.38-1.59-4.79-1.59c-1.57,0-3.1,0.28-4.61,0.84c-1.5,0.56-2.7,1.22-3.58,1.98v16.86h4.7v4.03H0.3z"/>
	<path class="st5" d="M47.93,30.2c8.31,0,12.46,4.76,12.46,14.27c0,9.63-4.19,14.45-12.58,14.45c-4.29,0-7.44-1.28-9.42-3.85
		c-1.99-2.57-2.98-6.08-2.98-10.54C35.41,34.98,39.58,30.2,47.93,30.2 M47.93,54.71c2.81,0,4.79-0.85,5.93-2.56
		c1.14-1.71,1.71-4.25,1.71-7.62c0-3.41-0.58-5.95-1.74-7.62c-1.17-1.67-3.15-2.5-5.96-2.5c-2.77,0-4.74,0.83-5.9,2.5
		c-1.16,1.67-1.75,4.19-1.75,7.56c0,3.41,0.59,5.97,1.78,7.68C43.18,53.86,45.16,54.71,47.93,54.71"/>
	<path class="st5" d="M65.33,58.26v-4.03h3.97V34.9h-3.91v-4.09h8.07v2.89c1.96-2.33,4.62-3.49,7.95-3.49c3.49,0,6.04,1.3,7.65,3.92
		c2.21-2.61,5.22-3.92,9.03-3.92c3.13,0,5.35,0.84,6.65,2.53c1.3,1.68,1.96,4.25,1.96,7.71v13.79h3.85v4.03H98.51v-4.03h3.61V40.74
		c0-2.17-0.34-3.74-1.02-4.72c-0.68-0.98-1.99-1.48-3.91-1.48c-2.97,0-5.22,0.94-6.74,2.83v16.86h3.61v4.03H82.19v-4.03h3.67V37.61
		c-1-2.05-2.85-3.07-5.54-3.07c-2.61,0-4.77,0.94-6.5,2.83v16.86h3.61v4.03H65.33z"/>
	<path class="st5" d="M127.11,54.83c3.01,0,5.94-0.99,8.79-2.95l1.56,3.73c-3.21,2.21-6.68,3.31-10.42,3.31
		c-4.33,0-7.51-1.28-9.51-3.85c-2.01-2.57-3.01-6.1-3.01-10.6c0-4.21,1.02-7.65,3.07-10.29c2.05-2.65,5.04-3.97,8.97-3.97
		c3.61,0,6.34,1.12,8.19,3.37c1.85,2.25,2.77,4.98,2.77,8.19c0,1.29-0.12,2.69-0.36,4.21h-17.83
		C119.47,51.88,122.05,54.83,127.11,54.83 M119.41,42.37h13.55c0.08-0.48,0.12-0.88,0.12-1.21c0-2.13-0.58-3.82-1.75-5.09
		c-1.16-1.26-2.75-1.9-4.76-1.9C122.15,34.18,119.77,36.91,119.41,42.37"/>
	<path class="st5" d="M167.46,30.2c8.31,0,12.46,4.76,12.46,14.27c0,9.63-4.2,14.45-12.58,14.45c-4.3,0-7.44-1.28-9.42-3.85
		c-1.99-2.57-2.98-6.08-2.98-10.54C154.93,34.98,159.11,30.2,167.46,30.2 M167.46,54.71c2.81,0,4.79-0.85,5.93-2.56
		c1.14-1.71,1.72-4.25,1.72-7.62c0-3.41-0.58-5.95-1.74-7.62c-1.17-1.67-3.15-2.5-5.96-2.5c-2.77,0-4.74,0.83-5.9,2.5
		c-1.16,1.67-1.75,4.19-1.75,7.56c0,3.41,0.59,5.97,1.78,7.68C162.71,53.86,164.69,54.71,167.46,54.71"/>
	<path class="st5" d="M200.88,16.23v4.16c-1.37-0.24-2.49-0.36-3.37-0.36c-1.48,0-2.53,0.44-3.13,1.32
		c-0.6,0.89-0.91,2.23-0.91,4.04v5.42h8.19v4.03h-8.19v19.39h6.44v4.03h-14.99v-3.61l4.1-0.84V34.84h-4.16v-4.03h4.16v-5.72
		c0-2.73,0.66-4.96,1.99-6.71c1.32-1.74,3.41-2.62,6.26-2.62C198.39,15.75,199.59,15.91,200.88,16.23"/>
</g>
</svg>
